<?xml version="1.0" encoding="utf-8"?>
<!-- Generator: Adobe Illustrator 26.0.0, SVG Export Plug-In . SVG Version: 6.00 Build 0)  -->
<svg version="1.1" id="inkstrokes_box" xmlns="http://www.w3.org/2000/svg" xmlns:xlink="http://www.w3.org/1999/xlink" x="0px"
	 y="0px" viewBox="0 0 359.5 296.2" style="enable-background:new 0 0 359.5 296.2;" xml:space="preserve">
<style type="text/css">
	.st0{fill:#FFFFFF;}
</style>
<g id="square">
	<rect x="52.7" y="39.7" class="st0" width="242.3" height="242.3"/>
</g>
<g id="ink_redraw">
	<g>
		<path d="M204.3,196.6c0.9-0.5,2.8-3.2,5.8-4.1c3-0.9,14.6-3.9,18.4-5.3c3.7-1.4,11.2-5.1,15.5-5.4c4.3-0.3,1.1-4.3-1.2-4
			c-2.3,0.3-4.7,2.1-11.9,6s-10.4,3.7-13.9,4.7c-3.6,1-11.8,4.8-14.3,6C200,195.7,204.3,196.6,204.3,196.6z"/>
		<path d="M344.6,40.8c-2.2-0.8-8.6,2.1-11,3c-2.3,0.9-14.9,6.1-19.1,7.6s-5.9,3.9-10.7,5.7c-4.8,1.9-9.3,4.7-11.1,5.9
			c-1.8,1.2-8.1,4.2-8.1,4.2s-0.1-0.1-0.3-0.2V53.5c0.3-0.1,0.6-0.3,1-0.4c1.4-0.4,0.4-1.9-1-2V50h-1.9c-0.2-1.8,0.5-5,1.2-6.1
			c1-1.8,0.1-1.5-1.4-2.8s-2.4,0.8-3.7,0.5c-1.4-0.4-3.2,0-3.8,0.4c-0.6,0.4-0.9,1.4-2.2,2.2c-1.3,0.8-4.2,0.4-5.4-0.2
			c-1.2-0.6-4.6,1.8-4.9,1.2c-0.3-0.6,0.3-1.1,0-1.7s-1.4,0-3,0.9c-1.6,0.9-4.1,0.6-4.1,0.6s-1-1-1.3-1.5c-0.3-0.5,0.5-1.4,0.9-1.8
			c0.3-0.3,1.9-1.6,1.4-1.6s-0.8-1.7-1.9-2.7c-1.1-1-0.5-3.8-0.4-4.9c0.1-1.1,1.6-2.5,2.3-3.4s1.5-0.9,3.9-2
			c2.3-1.1,3.2-3.7,0.7-4.5c-2.5-0.8-3.1,0.6-3.5,2c-0.4,1.4-2.1,3.3-3.8,3.9c-1.7,0.6-2.5,2-3.6,3.7c-1,1.7,0.1,1.7,0.4,5
			c0.3,3.3-0.7,3.4-1.5,3.8c-0.8,0.4-2.6,0.1-4.2,0.5s-2.1,0.1-2.8-0.3c-0.7-0.5-0.7-2.3-3.2-2.5c-2.5-0.2-3.1-1.6-3.9-3
			s-2.4-2.2-4.4-0.8c-2,1.4-2.5,1.1-3,0.9c-0.5-0.2-0.4-1.8-2.9-2.8c-2.5-1-3.8-1.5-5-0.7c-1.2,0.8-1.3,1.3-3,0
			c-1.7-1.3-2.5-1-4.2-0.2c-1.7,0.8-1.1,4.3-1.3,6.1c-0.2,1.8-2.1,0.9-2.4,0.1c-0.3-0.8-1-1.5-1.7-1.4c-0.7,0.1-1.3-2.3-2.2-3.8
			c-0.9-1.4-3-1.5-3.3-1c-0.3,0.5,0,1.7,0.4,2.7c0.4,1,1.4,4.1,0.4,6.3s-1.7,0.4-2.9,1.8c-1.2,1.4,0.8,5.1,0.8,5.1s0.2,1,0.3,2.1
			h-18.4c-1.1-1.9-0.8-5.2-1.5-7.3c-0.9-2.5-0.5-3.4-1.3-6.1c-0.8-2.7-3.5-6.8-4.6-7.7c-1.1-0.9-3.9-0.5-5.4-1.1
			c-1.5-0.5-1.6-2.9-3.1-5.1c-1.6-2.2-3.5-2.3-3.9-1.9c-0.4,0.5,0,1.6,1.5,2.5c1.4,0.9,2.1,3.2,4.2,5.5c2.1,2.3,2.9,3.4,3.7,2.7
			c0.8-0.7,1.5,0.2,2.2,1.3c0.7,1.1,1.3,4.3,2.6,5.5c1.2,1.3,0.9,2.5,1,3.8c0.1,1.3-0.1,5-0.4,6.6c-0.1,0.3,0,0.6,0,1H64.4v33.5
			c-15.8,3-37.3,7.1-42,8.4c-7.7,2.2-17.2,4.5-16.8,7c0.4,2.5,7.1,1.1,8.3,0.8c1.2-0.3,5.5-2.7,20.7-6.4c7.7-1.9,19.8-5.2,29.8-8.1
			v5.8c0,0-0.1,0.1-0.1,0.1c-0.1,0.2,0,0.3,0.1,0.4v9.4c-2.6,0.5-5.5,1.1-6.6,1.4c-2.4,0.6-6.3,4.3-6,5.4c0.3,1.1,2.4,3,5.1-0.3
			c1.4-1.8,4.7-3.7,7.6-5.2v167.4h219.9V118.6c0.3,0,0.7,0,1,0.2c0.4,0.2,1,1.2,1.6,2.4c0.6,1.2,2.1,2,2.5,1.9
			c0.4-0.2,0.6-0.7,1.6,0.7c1,1.4,0.7,2.9,1,4.6c0.3,1.7,1.5,0.9,1.9,0.1c0.4-0.7-0.1-1.3-0.6-2c-0.5-0.6-1.6-3.6-0.9-3.8
			c0.7-0.2,0.7-0.3,0-1c-0.7-0.7-2-1.6-2.4-2.3c-0.4-0.7-0.5-0.9,0.5-1.2c0.9-0.3,2.3,1.3,4.1,1.3s2,0,1.8-1.4
			c-0.2-1.4-2-1.6-4.2-1.7s-2.6-0.4-3.1-0.7c-0.5-0.3-0.4-1.4-0.1-1.9c0.2-0.4,0-1.4-0.1-1.8c0.2,0.4,1.6,1.3,3.1,2
			c1.6,0.7,1.7,0.5,1.7-0.2s0.4,0.5,1.3,1c0.9,0.5,1.4,2.1,1.6,1.4c0.2-0.7,0-1.7,0.1-2.4c0.1-0.7-0.4-1,1.9-0.8
			c2.3,0.1,2.7,0,5-0.7c2.3-0.7,2.3-2.9,2.8-3.6c0.4-0.7-0.3-4-0.3-4.6c0.1-0.7,2.1-1,2.6-1.7c0.5-0.7-1.4-3.8-1.9-4.5
			c-0.5-0.7,0.1-2.1-0.3-3.5c-0.4-1.4-1.4-0.5-2.7-0.5s-0.1-0.7,0.2-1.5c0.3-0.8-0.5-2-2.5-2.9c-1.9-0.9-5.1-0.4-7.2-0.5
			s-4.2,1.7-6.9,2.2c-1.9,0.3-2.3,1.2-3,1.9V69.4c3.2-2,10.8-5.5,14-6.9c3.7-1.6,12-5,14.5-7.1c2.6-2.1,5.6-1.9,8.8-3.9
			c3.2-2,8.1-3.3,11.6-4.2c3.5-1,8.8-1,11.9-2.4C348.3,43.5,347.3,41.8,344.6,40.8z M185.1,200.1c-18.1,7.8-25.4,9.7-62.6,16.5
			c-11.5,2.1-17.6,3.5-20.8,4.6c0.1-1.9,0.3-4.3,1.1-7.2c1.7-6.2,6.5-18.5,7.5-21.1c0.3-0.7,0.7-2,1.2-3.4c3.1-1.8,8.5-4.9,10.5-6.2
			c2.8-1.7,18.1-10.8,20.5-12.1c1.6-0.8,3.6-2.3,5.4-3.5c1.1-0.2,2.5-0.3,4.5-0.6c8.2-0.9,12.3-2.3,15.4-3.5
			c3.1-1.3,8.3-4.8,11.7-7.1c3.5-2.3,8.9-3.4,10.7-3.6c1.9-0.2,3.3,0.9,6.6-0.5c3.3-1.4,3.6-2.8,5.8-3.5c2.1-0.7,1.3-0.4,5.1-0.8
			c3.8-0.4,3-2.5,2.2-2c-0.8,0.5-5.5,0.5-7.1,0.6c-1.6,0.1-2.3,2-3.9,2.2c-1.5,0.2-1.1,1.3-3.4,2c-2.4,0.7-2.4,0.5-3.3-0.8
			c-1-1.3,4.3-1.9,6.8-2.8c2.5-0.9,7.2-3,10.7-4.4c3.5-1.5,8.3-2.8,6.8-2.9c-1.4-0.2-4.9,1.1-11.5,3.5c-6.7,2.3-19.4,4.1-24.8,5.3
			c-5.4,1.2-18,6.1-31,9s-11.1,2.1-21.6,3.1c-2.8,0.3-5.6,0.4-8.3,0.5c0.2-0.7,0.4-1.4,0.6-2.1c2.1-7.3,3.6-16.1,5.5-17.7
			c1.9-1.7,6.4-2.8,6.7-5.4c0.3-2.5-0.4-2.7,1.1-4.5c1.5-1.8,18.5-8.9,23.9-13.7c1.4-0.2,2.6-0.4,3.2-0.4c1.6-0.1,7.7,0.7,10.9,0.7
			c3.2,0,9.8-1.8,12.6-1.3c2.7,0.4,5.2,0.3,6.2,0.1c0.9-0.1,7.9-1.5,8.1-0.5c0.2,0.9-10.5,7.7-13,9.2c-2.5,1.5-4.5,2-2.7,2.9
			c1.8,0.9,5.7-2.2,7.2-4.4c1.5-2.2,5.5-3.6,8.6-5c3.1-1.4,10.3-4.5,12.2-4.9c2-0.4,2.6-1,3.7,1s0.5,1.4,0.1,2.5s-1,0.8-1.7,1.8
			c-0.6,1-0.6,3.2-0.4,2.9c0.3-0.3,2-1.7,3-1.5c1.1,0.1,0.5,1.5,0.2,1.7s-0.2,0-2.1,0.9s-1.4,1.4-1.4,2.2c0.1,0.8-1.3,1.8-2,2.3
			c-0.7,0.5-0.6,2.1-0.3,2.7c0.2,0.6,1.5,0.2,2.5-0.1c1-0.3,1.3-0.6,1.7-1c0.4-0.4,2.3-2.7,2.3-1.6c0,1.1,0.4,0.9,1.2,0.5
			c0.8-0.4,1.6-1.2,1.7-1.5c0.1-0.3-1.6-0.5-2.2-0.5s-1.1,0-0.4-1c0.6-1-0.1-1.7,0-2.1c0-0.4-0.3-0.3,0.7-0.7
			c1.1-0.4,0.3-0.1,0.8-1.7c0.5-1.6,1.9-2.3,2.5-2.4c0.7-0.1,1.1,1,2.2,0.8c1.1-0.3,2.1-1.7,3.4-1.8c1.3-0.1-0.1,4.6-0.5,6.1
			c-0.5,1.6-0.5,2.6,0.5,2.7c1,0,2.8,0.6,3.1,1.1c0.3,0.5-1.4,2.2-2.2,5c-0.8,2.9-1.6,4.1-1.9,6.7c-0.3,2.5,2.3,1.3,3.5,0.9
			c1.2-0.3,1.3-1.3,1.5-1.9c0.2-0.6-0.2-0.4-1-0.3c-0.8,0-0.5-1.2,0.2-1.5c0.7-0.2,1.6-0.8,1.9-1.6c0.3-0.8-0.3-2.1-0.3-3.6
			c0-1.5-0.5-1.2,0.2-2.5c0.8-1.3,1.2-3.6,1.3-4.3c0.1-0.7-0.2-1.6,0.8-2.4c1-0.8,1.3-1.7,2.1-1.9c0.8-0.2,0.6,1.7,1.6,1.4
			c1-0.3,3.4,2.2,5.5,2.2c2.1,0,3.1-0.5,3.9-0.6c0.8,0,2.5,0.9,4,3.1c1.4,2.1,2,0.6,2.2,0.3s-1-2.5,1.5-2.5c2.5-0.1,5.6,0.8,6.6,1.4
			c1,0.5,5.7,3.6,5.2,0.3c-0.5-3.3-0.1-3,0.4-3.1c0.5-0.1,0.6,1,1.9,0.3c1.3-0.7,2.2-0.5,2.6-0.3c0.4,0.2,0.2,1.8,2.3,1.4
			c2.1-0.5,3.2-1.1,4-1.7c0.8-0.6-0.2-0.8,1.1-2.5c0.2-0.3,0.5-0.5,0.8-0.6v50.5c-0.1,0-0.2,0.1-0.4,0.2c-1.8,1-1.6,1.1-3.5,2.8
			c-1.9,1.7-1.9,2.8,0,2c0,0,2.3-1.8,3.8-2.8v5.5c-0.6,0.2-1.7,0.6-3.3,1.4c-2.9,1.4-1.3-0.1-5.4,0.7c-4.1,0.8-2.8,1.1-5.3,2.1
			c-2.5,1.1-30.2,8.2-37.6,13.1c-7.3,4.9-35.8,8.1-29.7,5.8C203.3,197.7,203.2,192.3,185.1,200.1z M80.2,91.8c1-0.5-0.1-1.3,0.1-1.5
			c0.2-0.2,0.5,0.1,1.7,0.3c1.2,0.2,2.3,1.6,0.5,2.3c-1.8,0.7-1.7,1.7-0.7,1.9c1,0.3,3.5,0,3.5,0c-0.3,0.3-0.3,0.9,0.4,0.9
			c0.7,0,0.3-0.9,0.3-0.9s0.4,0.2,0.6,0.4c0.2,0.2,0.2,0.9,0,2c-0.2,1.1-2.5,2-1.7,2.9s4.3-0.4,6.2-0.4c1.9,0,1.8,1.5,1.8,2.2
			c0.1,0.7,2,0.8,2.7,0.9c0.7,0.1,0.1,0.6-0.1,1.3c-0.2,0.6,2,0.2,1.1,0.6c-0.9,0.3-2.7,1.5-6.9,5.5c-4.2,4-5.6,6.9-4.8,7
			c0.8,0.1,9-5.1,10.4-5.6c1.4-0.5,3.3,0.3,4.9-0.2c1.6-0.4,0.5-1.1,1.8-1.5c0.9-0.2,1.7,0,2,0.2c1.3,0.7,3.8,2.7,4.4,7.8
			c0.8,6.9,2.1,7.7,0.2,11.3c-1.9,3.6-4.7,8.9-6.4,15c-1.4,5.3-4.3,13.1-5.9,18.5c-2.1,0.4-4,0.8-5.6,1.3c-2.7,0.9-8.4-0.2-10.6,0
			s-2.6,2-3.1,4.2c-0.4,2.2,0.1,3.3-0.2,5.2c-0.3,1.8-1.7,1.9-1.7,4.7c0,2.8,0,2.4-0.4,3.8c-0.3,1.4,4.2,5.6,4.2,5.6
			s0.9,1.3,1.7,1.2c0.8-0.1,0.7,0.9,2.1,1.8c1.3,0.8,1.1,0.2,2.8,0c0.2,0,0.9-0.2,1.8-0.5c0,0.3-0.1,0.5-0.1,0.8
			c-1.5,10.7-2.3,17.7-2.7,21.8c-0.2,2.6,0,5.6,0.1,8.1c-0.9-0.5-1.8-1.1-2.7-1.6c-5.4-2.8-5.5-10.7-9.4-12c-1-0.3-1.8-0.1-2.4,0.4
			V91.9c1.5-0.4,4.9-1.3,6-1.5c1.2-0.2,2.6-0.3,2.8-0.3c-0.1,0-0.2,0.1-0.4,0.6C78.3,91.4,79.2,92.3,80.2,91.8z M111.5,189.2
			c1.1-3.5,2.5-7.8,2.9-7.9c0,0,0.1-0.1,0.2-0.2c4.2-1.3,9.1-2.8,12.6-4.2c2.9-1.2,6.4-2.9,9.6-4.5c-1.5,1.4-3.3,3-4.8,3.6
			C129.9,176.7,116.9,185.5,111.5,189.2z M137.3,126.9c0,0,2.4-3.9,2.7-6.2c4.2-0.8,9.7-1.6,10.4-1.7c0.4-0.1,2.1-0.4,3.9-0.7
			c-1.2,0.6-2.7,1.3-4.2,2C142,123.6,137.3,126.9,137.3,126.9z M278,90.1c0.1,0.2,0.3,0.2,0.5,0.3v1c0,0,0,0,0,0
			c-0.5,0.1-0.8,0.3-0.8,0.9s0.4,0.7,0.6,1.2c0.2,0.5,0.1,1.2,0.1,1.8c0,0.6-0.1,0.7,0,1c0,0.1,0.1,0.2,0.2,0.3v7.1
			c-0.2-0.2-0.4-0.5-0.6-0.8c-0.5-0.6,0.3-0.2-0.6-1.8c-0.9-1.6-2.4-2.5-3.2-2.9c-0.8-0.4-1.1-0.9-1.4-1.3c-0.3-0.5,0.3-2.3,0.4-2.9
			c0.1-0.7-0.1-0.5,0.5-1.9c0.6-1.4,2.3-3.1,2.6-3.4c0.3-0.3,0.5-0.2,1.1-0.5c0.6-0.3,0.4-1,0.4-1.2c0-0.1,0.4-0.4,0.8-0.6V89
			c-0.1,0.1-0.2,0.1-0.4,0.2C277.3,89.6,277.8,89.5,278,90.1z M278.5,60.8c-1.3,0.1-2.9-0.2-3-0.6c-0.1-0.4,1.7-1.5,2.2-1.9
			c0.2-0.1,0.5-0.5,0.8-0.8V60.8z M191.5,55.8h3c-0.3,0.2-0.5,0.5-0.6,0.6c-0.6,0.9-1.2,0.9-1.8,0.6
			C191.7,56.8,191.6,56.4,191.5,55.8z M179.2,55.8c1,1.5,2.6,3.4,1.5,3.8c-1.2,0.4-3.7-0.7-8.5-0.4c-4.8,0.3-3.4,2.1-2,2.5
			c1.4,0.5,6.6,0,6.6,0c-0.5,0.1-2.1,2.6-2.1,2.6s1.5,0-5.6,0.9s-31.2,5.1-36.7,5.4c-5.5,0.3-3.9,1-11.2,0.1
			c-7.3-0.9-26.1,1.7-27.7,1.8c-1.6,0.1-1.1,0.8-2.5,0.8s-1.7,0.6-3.9,1.3c-2.2,0.7-8.8,2.1-14.4,2.9c-0.9,0.1-1.8,0.3-2.6,0.5V61.8
			c0.1,0,0.2,0.1,0.3,0.1c3.4,1.3,5.2,2.9,7.6,5.5c2.4,2.6,5.8,6.5,5.8,6.5S75.8,62.3,74.1,61c-1-0.8-2.5-1.9-3.9-2.6v-2.6H179.2z
			 M70.1,80.3c1.4-0.1,2.2-0.5,2.6-0.6c0.5-0.2,1.8-0.3,3.1-0.5c1.3-0.1,2.7,0.5,3.3,0.4c0.6-0.1,0.8-0.4,1.7-0.4
			c0.8,0,0.6,0.4,0.5,1.3c-1.3,0.2-5.5,1-11.2,2.1V80.3z M81.3,80.4c0,0.1,0,0.2-0.1,0.3c-0.2,1,0.1,1.4-0.3,1.9
			c-0.4,0.5-1.7,0.8-3.3,1.9c-1.6,1.1-4.6,1.7-6.6,2.5c-0.3,0.1-0.6,0.3-0.9,0.4v-3.8C75.7,82.1,80,80.8,81.3,80.4z M70.1,215.5
			c1.5,0.8,3.4,1.9,4.8,4.5c2.3,4.3,0.8,7.4-1.3,12.4c-2.1,5-3.2,6.1-1,8.9c2.2,2.8,1.7,6.2,2.6,10.7c0.8,4.5,1.7,6.9,4,10.1
			c0.6,0.8,1,1.5,1.4,2.1H70.1V215.5z M149.5,264.2c0.3,0,0.7-0.1,1-0.1c10.3-1.6,25.3-4.1,29.4-4.6c4.1-0.5,29.4,0.6,45.7-0.4
			c16.3-1.1,29-3.1,40-5.3c7.8-1.5,11.5-2.3,13-2.5v1.9c-1.8,0.5-3.8,1.1-4.8,1.4c-2.1,0.6-2.8,0.5-4.2,1.1
			c-1.5,0.6-9.9,2.1-9.6,2.4c0.4,0.3,6.1-0.4,6.9-0.8c0.8-0.4,2.9-0.1,4.5-0.8c1.6-0.7,2.1-0.8,3.6-1.4c0.7-0.2,2.1-0.8,3.5-1.4
			v10.6H149.5z"/>
		<path d="M316.5,65.1c-1.5,0.9-1.3,0.6-4.3,1.8c-3,1.2-1.5,0.4-4.6,1.7c-2.6,1.1-3.1,1.1-5.7,1.9c-0.5,0.2-9.6,2.1-9.3,2.6
			c0.5,0.8,6.8-0.6,8.8-1.2c0.7-0.2,4.3-0.9,5.7-1.4c3-1.1,3.2-0.8,6.4-1.7c3.2-0.9,4-1,6-1.8c1.7-0.7,4.4-1.6,2.5-3.3
			C320.4,62.2,318,64.1,316.5,65.1z"/>
		<path d="M304.7,42.9c2.1-1.2,5.9-2.6,7.9-3.1c2-0.5,3.3-4.1,3.3-4.1s-0.4-3.3,3.9-4.3c4.4-1,3.6-3,2.7-4.4c-1-1.3-2.9,0.5-4.6,2.4
			c-1.7,1.9-3.9,1.7-5.7,2.1c-1.8,0.4-4,2-4.7,2.8c-0.7,0.8-2,1.3-2.9,2.4c-0.9,1.1,3.7,1.3,0.4,3.9c-3.3,2.6-3,3.5-3,3.5
			C302.6,44.7,302.6,44,304.7,42.9z"/>
		<path d="M266.8,28.7c-1.1,2.9-3.6,11-3.6,11s4.5-10.9,5.1-11.4C268.8,27.7,267.9,25.8,266.8,28.7z"/>
		<path d="M279,33.4c1.8-0.8,2-1.3,3-2.3c1-1,0.4-1.6,1.2-3.4c0.8-1.8,1.2-0.7,3.2-1.2c2-0.5,1.1-0.9,1.3-1.7
			c0.2-0.8-0.9-1.4-1.8-1.1c-0.8,0.3-1.9,1.1-3.9,1.6c-2,0.5-1.8,1.1-3.6,2.2s-1.4,1.5-2.9,2.6c-1.5,1.1-1.1,4.5-1.1,4.5
			C275.1,34.6,277.2,34.2,279,33.4z"/>
		<path d="M146.1,63.4c1.4,1.2,4.1,0.1,7.3,0.6s7.5,0.8,7.5,0.8c1.5-0.2-0.1-0.8-1.7-2c-1.6-1.2-2.4-0.8-3.1-0.4s-4.4-1.6-6.6-2.1
			c-2.2-0.6-3.6,0.1-5.4,0.4C142.2,61.1,144.7,62.2,146.1,63.4z"/>
		<path d="M89.8,100.5c0,0-1.4,0.7-2.6,1c-1.2,0.3-2.2,0.5-2.9,1c-0.7,0.5,0.2,1.7,0.2,1.7C87,104,89.8,100.5,89.8,100.5z"/>
		<path d="M292.1,76.2c-0.8-0.4-1.8-0.8-3.1-1.4s-1.1-0.3-1.7-0.3c-0.6,0-0.9,1-0.9,1s0.6-0.2,0.8-0.2c0.2,0,2,0.9,3.1,1.8
			c1.1,0.9,1.6,1.3,2.1,1.3c0.4,0,1.7-0.4,1.6-1.5C294,75.8,292.9,76.6,292.1,76.2z"/>
	</g>
</g>
</svg>
