<?xml version="1.0" encoding="utf-8"?>
<!-- Generator: Adobe Illustrator 26.0.0, SVG Export Plug-In . SVG Version: 6.00 Build 0)  -->
<svg version="1.1" id="inkstrokes_box" xmlns="http://www.w3.org/2000/svg" xmlns:xlink="http://www.w3.org/1999/xlink" x="0px"
	 y="0px" viewBox="0 0 547.4 296.2" style="enable-background:new 0 0 547.4 296.2;" xml:space="preserve">
<style type="text/css">
	.st0{fill:#FFFFFF;}
</style>
<g id="small_square">
	<rect x="75.6" y="53.1" class="st0" width="215" height="215"/>
</g>
<g id="words">
	<g>
		<path class="st0" d="M341.1,202.9c0.9-1.8,1.6-3.8,2.2-5.8c0.6-2,0.8-4.2,0.8-6.6v-1.4c0-0.4-0.1-0.8-0.2-1.3
			c-0.1-0.4-0.2-0.8-0.2-1.3c0-0.5,0.1-0.9,0.3-1.3c-0.4-0.8-0.8-1.4-1.2-1.8c0.1-0.4,0-0.7-0.1-0.9c-0.1-0.2-0.2-0.5-0.1-0.9
			c-0.4-0.4-0.8-0.9-1.1-1.4c-0.3-0.5-0.6-1-0.9-1.5c-0.3-0.5-0.7-1-1-1.5c-0.4-0.5-0.8-0.9-1.2-1.3c0.1-0.3,0-0.6-0.2-0.9
			c-0.6-0.3-1.3-0.6-2-0.9c-0.7-0.3-1.1-0.9-1.2-1.8c-0.4-0.3-0.9-0.5-1.5-0.6c-0.6-0.1-1-0.2-1.4-0.5c-0.2-0.1-0.3-0.3-0.3-0.5
			c0-0.2-0.1-0.3-0.3-0.4c-0.2-0.1-0.5-0.2-0.9-0.3c-0.4,0-0.7-0.1-0.9-0.2c-0.3-0.1-0.5-0.3-0.7-0.5c-0.2-0.2-0.4-0.3-0.7-0.4
			c-0.3-0.3-0.7-0.4-1.1-0.4c-0.4,0-0.8-0.1-1.2-0.1c-0.4,0-0.8-0.1-1.2-0.2c-0.4-0.1-0.7-0.3-1.1-0.7c0-0.2-0.1-0.3-0.2-0.3
			c-0.3,0.3-0.7,0.5-1.2,0.6c-0.5,0.1-0.9,0.1-1.4,0.1c-0.6,0-1.2,0-1.8-0.1c-0.6-0.1-1.2-0.2-1.7-0.3c-0.5,0.1-0.9,0.3-1.2,0.6
			c-0.4,0.3-0.8,0.5-1.2,0.8c-0.1-0.3-0.2-0.4-0.4-0.4c-0.2,0-0.3,0.1-0.5,0.2c-0.1,0.1-0.3,0.2-0.4,0.2c-0.2,0-0.2-0.1-0.3-0.3
			c0-0.2-0.1-0.3-0.1-0.4c-0.2,0-0.3,0.1-0.4,0.2c-0.1,0.1-0.2,0.3-0.2,0.4c-0.1,0.1-0.2,0.3-0.3,0.4c-0.1,0.1-0.3,0.2-0.5,0.2
			c-1.8,0-3.4,0.3-4.8,0.8c-1.4,0.6-2.8,1.2-4.4,2c-0.2,0-0.4-0.1-0.7-0.1c-0.2,0-0.5,0-0.7,0c-0.8,0-1.5,0.2-2.1,0.5
			c-0.6,0.3-1.2,0.8-1.7,1.4c-1.3,0.3-2.6,0.8-3.8,1.4c-1.2,0.6-2.4,1.4-3.5,2.4h-0.2c-0.2,0-0.3,0-0.5-0.1
			c-0.1-0.1-0.3-0.1-0.5-0.1h-0.3c-0.6,0.8-1.1,1.6-1.6,2.2c-0.5,0.6-0.7,1.5-0.7,2.7v0.5c0,0.2,0,0.3,0.1,0.5
			c0.3,0.5,0.7,1,1.1,1.5c0.4,0.5,0.8,0.8,1.4,1c0.6-0.3,1.2-0.5,1.9-0.8c0.7-0.3,1.3-0.6,2-0.9c0.6-0.3,1.3-0.7,1.8-1.1
			c0.6-0.4,1.1-0.9,1.6-1.5c0.3,0,0.5,0,0.7-0.1c0.2-0.1,0.4-0.2,0.5-0.4c0.2-0.1,0.3-0.3,0.5-0.4c0.2-0.1,0.4-0.2,0.6-0.2h0.2
			c0.1,2.5,0.3,4.9,0.5,7.4c0.3,2.4,0.4,4.9,0.4,7.4c0,0.7,0,1.4-0.1,2.2c0,0.7-0.1,1.5-0.3,2.2c0.2,0.7,0.3,1.4,0.3,1.9
			c0,0.2,0,0.5-0.1,0.7c0,0.3-0.2,0.5-0.5,0.5c0.2,0.3,0.3,0.5,0.5,0.8c0.1,0.3,0.2,0.6,0.2,0.9c0,0.4,0,0.8-0.1,1.2
			c-0.1,0.4-0.2,0.8-0.3,1.2c-0.1,1-0.2,2-0.2,3.1v3.3c0,1.1,0,2.2-0.1,3.3c-0.1,1.1-0.2,2.1-0.5,3l0.2,0.6c0.1,0.2,0.1,0.4,0.2,0.7
			c-0.3,0.8-0.4,1.7-0.5,2.6c-0.1,0.9-0.1,1.8-0.1,2.6c0,0.3,0,0.7,0.1,1.1c0,0.4,0,0.8-0.1,1.1c0,0.3-0.1,0.5-0.2,0.7
			c-0.1,0.2-0.2,0.4-0.2,0.6c0.3,0.3,0.5,0.6,0.5,1c0,0.3,0,0.7-0.1,1c-0.1,0.3-0.1,0.6-0.1,1c0,1,0.2,2,0.5,3c0.3,1,0.5,1.9,0.5,3
			c0,0.5-0.1,1-0.2,1.4c-0.1,0.5-0.2,1-0.2,1.5c0,0.7,0.2,1.4,0.6,2c0.4,0.6,0.7,1.2,1,1.8c0.2,0,0.4-0.1,0.6-0.1
			c0.5,0,0.9,0.1,1.2,0.4c0.3,0.3,0.6,0.5,1,0.5c0.2,0,0.4,0.1,0.6,0c0.2,0,0.5,0,0.7,0c0.5,0,1,0.1,1.6,0.2c0.5,0.1,1,0.2,1.6,0.3
			c0.5-0.2,0.8-0.5,1.1-0.9c0.3-0.4,0.6-0.8,0.8-1.2c0.3-0.4,0.5-0.8,0.8-1.2c0.3-0.4,0.6-0.7,1-1c-0.1-0.3,0-0.5,0.1-0.7
			c0.2-0.2,0.3-0.4,0.3-0.6c3-2.1,5.8-4.4,8.4-7c2.5-2.6,4.8-5.5,6.9-8.8h0.6c0.4-0.9,0.9-1.8,1.4-2.6c0.5-0.8,1.1-1.6,1.7-2.4
			c0.6-0.8,1.1-1.6,1.7-2.4c0.5-0.8,1-1.7,1.3-2.6c0.2,0,0.4-0.1,0.5-0.2c0.1-0.1,0.2-0.3,0.2-0.5c0.1-0.2,0.1-0.3,0.2-0.5
			c0.1-0.1,0.3-0.2,0.5-0.2c0.9-2,1.9-3.9,2.9-5.7C339.3,206.6,340.3,204.8,341.1,202.9z M338.1,194.1c-0.2,0.8-0.3,1.5-0.6,2.2
			c-0.2,0.7-0.5,1.4-0.7,2.1c-0.2,0.7-0.4,1.5-0.5,2.4c-0.9,1.3-1.7,2.7-2.4,4.1c-0.7,1.4-1.5,2.7-2.3,4.1c-0.3,0.5-0.6,0.9-0.9,1.3
			c-0.3,0.4-0.6,0.8-0.9,1.2c-0.1,0.2-0.3,0.3-0.4,0.5c-0.2,0.2-0.3,0.3-0.4,0.5c-0.2,0.2-0.3,0.5-0.4,0.7c-0.1,0.3-0.2,0.5-0.3,0.7
			c-0.3,0.6-0.6,1.2-1,1.8s-0.7,1.1-1,1.7c-1.2,1.9-2.5,3.7-3.9,5.3c-1.4,1.7-2.8,3.3-4.3,5l-2.5,3c-0.2,0.2-0.3,0.4-0.5,0.6
			c-0.1,0.2-0.3,0.4-0.5,0.5c-0.2,0.2-0.5,0.4-1.1,0.8c-0.5,0.4-0.9,0.6-1.2,0.8c-1.1,0.8-2.1,1.7-3.1,2.5c-1,0.8-2.2,1.5-3.4,2
			c-0.5-0.2-0.9-0.6-1.2-1.2c-0.3-0.6-0.4-1.2-0.4-1.8c0-0.4,0.1-0.7,0.2-1c-0.2-1.4-0.3-2.8-0.3-4.1c-0.1-1.4-0.1-2.7-0.1-4.1
			c0-1.5,0.1-3,0.2-4.5s0.3-3,0.5-4.5c0-0.2,0-0.3,0-0.5c0-0.1,0-0.3,0-0.5c0-0.4,0-0.8-0.1-1.2c0-0.4-0.1-0.8-0.1-1.2
			c0-0.6,0.1-1.1,0.3-1.6c0.2-0.5,0.3-1,0.4-1.6c0-0.4,0.1-0.8,0.1-1.3c0-0.4,0-0.8,0-1.2c0-1.5-0.1-2.9-0.2-4.3
			c-0.1-1.4-0.2-2.9-0.2-4.3c0-0.6,0-1.3,0.1-1.9c0-0.6,0.1-1.3,0.2-1.9c-0.2-0.5-0.4-1-0.4-1.6c0-0.6-0.1-1.1-0.1-1.7
			c0-0.6,0-1.2,0-1.8c0-0.6-0.1-1.1-0.3-1.6c0.1-0.4,0.2-0.8,0.2-1.2c0-0.4,0.1-0.8,0.1-1.2c0-1.1-0.1-2.2-0.3-3.2
			c-0.2-1.1-0.3-2.1-0.3-3.2c0-0.2,0-0.4,0-0.6c0-0.2,0-0.4,0-0.6c0.2,0,0.4,0,0.5-0.1c0.1-0.1,0.1-0.2,0.1-0.3c0-0.1,0-0.3,0.1-0.4
			c0-0.1,0.1-0.2,0.2-0.3c0.2-0.2,0.5-0.3,0.8-0.3c0.2,0,0.4,0,0.6,0.1c0.2,0,0.4,0.1,0.7,0.2c0.7-0.5,1.5-1,2.3-1.2
			c0.9-0.3,1.8-0.5,2.7-0.7c0.9-0.2,1.8-0.4,2.7-0.7c0.9-0.3,1.7-0.6,2.5-1.1c0.3,0.3,0.7,0.4,1,0.4c0.3,0,0.6-0.1,1-0.2
			c0.3-0.1,0.7-0.2,1-0.2c0.2,0,0.4,0,0.6,0c0.2,0,0.4,0,0.7,0c1.4,0,2.8,0.2,4.2,0.7c1.4,0.5,2.7,1,4.1,1.4c0.5,0.8,1.2,1.3,2,1.8
			c0.8,0.4,1.6,0.8,2.3,1.1c0.2,1,0.6,1.7,1.4,1.8c0.3,0.3,0.6,0.6,0.7,1c0.1,0.4,0.4,0.6,0.9,0.6c0.3,1.1,0.7,2.3,1.1,3.4
			c0.4,1.2,0.6,2.3,0.6,3.6v1.1c0,0.4-0.1,0.6-0.2,0.8c-0.1,0.1-0.3,0.3-0.5,0.6C338.3,192.5,338.3,193.4,338.1,194.1z"/>
		<path class="st0" d="M383.1,232.8c0.8-1,1.6-1.8,2.6-2.4c0.4-1.4,0.9-2.7,1.6-3.8c0.7-1.1,1.4-2.4,2-3.6c0.1-0.9,0.2-1.7,0.4-2.5
			c0.2-0.8,0.4-1.6,0.6-2.5c0.2-0.8,0.4-1.6,0.6-2.5c0.2-0.8,0.3-1.7,0.4-2.5c0.1-1.7,0.1-3.4-0.1-5.1c-0.2-1.7-0.2-3.4-0.2-5.2
			c0.2-0.2,0.4-0.5,0.6-0.9c0.2-0.3,0.4-0.7,0.6-0.9c-0.1-0.1-0.2-0.1-0.3-0.2c-0.1-0.1-0.2-0.2-0.2-0.4c0-0.3,0.2-0.7,0.5-1.1
			c0.3-0.4,0.5-0.9,0.6-1.5c0-0.2,0-0.4-0.1-0.8c0-0.1,0.1-0.2,0.1-0.2c0.1,0,0.2,0,0.2,0l0.2,0c-0.1-0.5-0.1-0.9-0.2-1.4
			c-0.1-0.5-0.1-0.9-0.1-1.4c0-0.2,0-0.3,0.1-0.4c0-0.1,0-0.3,0.1-0.4c-0.4-0.7-0.7-1.4-0.9-2.3c-0.2-0.8-0.4-1.7-0.6-2.5
			c-0.2-0.8-0.4-1.7-0.6-2.4c-0.2-0.8-0.5-1.4-0.9-2c-0.1,0-0.2,0-0.3,0c-0.1,0-0.2,0-0.3,0c-0.3,0-0.6-0.1-0.8-0.4
			c-0.2-0.2-0.4-0.5-0.6-0.7c-0.2-0.3-0.4-0.5-0.6-0.7c-0.2-0.2-0.5-0.3-0.8-0.4c-0.5,0-0.9,0.1-1.1,0.5c-0.2,0.3-0.5,0.7-0.9,1
			c0.1,0.7,0.2,1.3,0.2,2c0.1,0.7,0.1,1.3,0,2c0,0.7-0.1,1.3-0.3,1.8c0.3,0.2,0.5,0.6,0.6,1.1c0.1,0.5,0.2,1,0.2,1.6l0.1,1.7
			c0,0.6,0.1,1,0.3,1.5c-0.1,2.9-0.2,5.8-0.2,8.7c0,2.9,0,5.8-0.2,8.7l-0.1,1.9c0,0.6-0.1,1.2-0.2,1.8c-0.4,0.6-0.7,1.3-0.8,2
			c-0.2,0.8-0.4,1.5-0.6,2.3c-0.2,0.7-0.5,1.4-0.9,2c-0.4,0.6-0.8,1.1-1.5,1.4c-0.4,1.5-1.1,2.8-1.9,3.9c-0.9,1.1-2,1.6-3.5,1.5
			l-0.7,0c-0.2-0.7-0.5-1.4-1-2c-0.4-0.6-0.9-1.2-1.3-1.8c-0.2-2-0.3-4-0.2-6c0-2,0.1-4,0.3-6c0.1-1.3,0.2-2.6,0.3-4
			c0.1-1.4,0.2-2.7,0.4-4.1c-0.2-0.5-0.5-0.9-0.9-1.1l0.1-1.7c-0.4-0.2-0.8-0.4-1.1-0.8c-0.3-0.3-0.6-0.7-0.9-1
			c-0.3-0.3-0.6-0.7-0.9-1c-0.3-0.3-0.7-0.5-1.2-0.5l-0.1,0c-0.3,0.2-0.7,0.5-0.9,0.9l-0.8,1.2c0.3,0.2,0.4,0.6,0.4,1.1
			c-0.3,0.6-0.5,1.3-0.6,2c-0.1,0.7-0.2,1.4-0.2,2.1c-0.1,0.7-0.2,1.4-0.3,2c-0.1,0.6-0.4,1.2-0.8,1.7c0.1,0.3,0.1,0.5,0.1,0.7
			c0,0.2,0,0.5,0,0.7c-0.1,0.9-0.3,1.8-0.6,2.5c-0.4,0.8-0.6,1.6-0.6,2.5l0,0.2c-0.2,0-0.4,0.1-0.5,0.3c-0.1,0.2-0.2,0.4-0.3,0.6
			c-0.1,0.2-0.2,0.4-0.3,0.5c-0.1,0.1-0.2,0.2-0.4,0.2l-0.2-0.1c0.1,0.7,0,1.1-0.2,1.4c-0.2,0.2-0.4,0.6-0.4,1c0,0.2,0,0.3,0,0.4
			c-0.5,0.3-0.9,0.6-1.3,1.1c-0.4,0.4-0.7,0.9-1.1,1.3c-0.4,0.5-0.7,0.9-1.1,1.3c-0.4,0.4-0.8,0.7-1.3,0.9c0,0.2,0,0.4-0.2,0.6
			c-0.2,0.2-0.4,0.5-0.6,0.7c-0.2,0.2-0.5,0.5-0.7,0.7c-0.2,0.2-0.4,0.4-0.5,0.6l-0.9-0.1c-0.3,0.5-0.6,0.9-1,1.2
			c-0.4,0.3-0.8,0.5-1.3,0.8c-0.5,0.2-0.9,0.5-1.3,0.8c-0.4,0.3-0.8,0.7-1.1,1.3c-0.2,0-0.4,0.1-0.6,0.1c-0.2,0-0.4,0-0.6,0
			c-0.4,0-0.8-0.1-1.2-0.2c-0.4-0.1-0.8-0.2-1.2-0.2l-0.6,0c-0.3-0.8-0.5-1.5-0.8-2.3c-0.2-0.7-0.5-1.5-0.8-2.1c0.3-1,0.5-2,0.5-3
			c0.1-1,0.3-2,0.7-2.9c0-0.3-0.1-0.5-0.1-0.8c0-0.3-0.1-0.5,0-0.8c0-0.6,0.2-1.2,0.5-1.9c0.3-0.7,0.5-1.4,0.6-1.9
			c0.4-1.7,0.8-3.5,1.2-5.2c0.4-1.7,1-3.4,1.8-5l0.2-2.4c0.6-1.3,1.1-2.7,1.5-4.2c0.4-1.5,0.7-3.1,1-4.8c0.3-1.7,0.5-3.3,0.7-4.9
			c0.2-1.6,0.3-3.2,0.4-4.6l0.1-1.8c-0.7-0.8-1.5-1.6-2.3-2.2c-0.8-0.7-1.6-1.3-2.5-1.9c-0.5,0.2-0.9,0.5-1.2,1
			c-0.3,0.4-0.6,0.9-0.8,1.4c0.1,1,0.1,2,0,2.9c-0.1,1.9-0.4,3.8-0.7,5.6c-0.3,1.8-0.6,3.7-0.7,5.6l0,0.8c0,0.2,0,0.4,0,0.7
			c-0.5,1.4-0.9,2.9-1.2,4.4c-0.4,1.5-0.7,3-1,4.5c-0.1,0.8-0.2,1.6-0.3,2.4c-0.1,0.9-0.3,1.6-0.5,2.3c-0.1,0.4-0.3,0.7-0.5,0.9
			c-0.2,0.2-0.4,0.4-0.5,0.7c-0.1,0.3-0.2,0.6-0.2,0.9s-0.1,0.6-0.1,0.8c-0.1,1.1-0.3,2.2-0.6,3.2c-0.4,1.8-0.8,3.7-1.3,5.5
			c-0.5,1.8-0.8,3.6-0.9,5.5c0.3,0.1,0.5,0.3,0.6,0.7c0.1,0.3,0.2,0.7,0.1,1.1c0,0.4,0,0.8-0.1,1.3l-0.1,1.1
			c0.3,0.6,0.5,1.2,0.7,1.9c0.1,0.7,0.3,1.3,0.5,2c0.7,0.5,1.2,1,1.4,1.4c0.2,0.4,0.5,0.8,0.7,1.1c0.3,0.3,0.6,0.5,1.1,0.8
			c0.5,0.2,1.3,0.3,2.4,0.4c0.7,0,1.5,0.1,2.3,0c0.8,0,1.6,0,2.3,0c0.7-0.5,1.5-1,2.3-1.4c0.8-0.5,1.6-0.9,2.5-1.2
			c0.7-1.3,1.7-2.3,2.9-3.1c0.2-0.1,0.4-0.2,0.6-0.2c0.2-0.1,0.4-0.1,0.5-0.2c0.3-0.2,0.7-0.6,1.1-1.1c0.4-0.5,0.7-1,1-1.3
			c0.9-1,1.7-2,2.5-3.1c0.8-1,1.8-1.9,2.8-2.7c0.4,1.6,0.8,3.1,1.3,4.6c0.5,1.5,1.1,2.8,1.8,4c0.7,1.2,1.6,2.2,2.7,2.9
			c1.1,0.8,2.4,1.2,4,1.3l0.5,0c0.2,0,0.4,0,0.6,0c1.3-0.9,2.6-1.7,4.1-2.2C381.6,234.7,382.4,233.7,383.1,232.8z"/>
		<path class="st0" d="M528.9,191.2c0-0.4,0.1-0.8,0.3-1.1c-0.4-0.7-0.8-1.2-1.2-1.6c0.1-0.4,0-0.6-0.1-0.8
			c-0.1-0.2-0.2-0.4-0.1-0.8c-0.4-0.4-0.7-0.8-1-1.2c-0.3-0.4-0.6-0.9-0.9-1.3c-0.3-0.5-0.6-0.9-1-1.3c-0.3-0.4-0.7-0.8-1.2-1.1
			c0.1-0.3,0-0.5-0.2-0.8c-0.6-0.3-1.3-0.5-1.9-0.8c-0.7-0.3-1.1-0.8-1.2-1.6c-0.4-0.3-0.9-0.5-1.4-0.5s-1-0.2-1.3-0.5
			c-0.2-0.1-0.3-0.2-0.3-0.4c0-0.2-0.1-0.3-0.3-0.4c-0.2-0.1-0.5-0.2-0.8-0.2c-0.4,0-0.7-0.1-0.9-0.2c-0.3-0.1-0.5-0.2-0.7-0.4
			c-0.2-0.2-0.4-0.3-0.7-0.4c-0.3-0.2-0.7-0.3-1.1-0.4c-0.4,0-0.8-0.1-1.2-0.1c-0.4,0-0.8-0.1-1.1-0.2c-0.4-0.1-0.7-0.3-1-0.6
			c0-0.2-0.1-0.3-0.2-0.2c-0.3,0.3-0.7,0.5-1.1,0.5s-0.9,0.1-1.3,0.1c-0.6,0-1.2,0-1.7-0.1c-0.6-0.1-1.1-0.2-1.7-0.3
			c-0.4,0.1-0.8,0.3-1.2,0.5c-0.4,0.2-0.7,0.5-1.1,0.7c-0.1-0.3-0.2-0.4-0.4-0.4c-0.2,0-0.3,0-0.5,0.1c-0.1,0.1-0.3,0.1-0.4,0.1
			c-0.1,0-0.2-0.1-0.3-0.2c0-0.1-0.1-0.3-0.1-0.3c-0.2,0-0.3,0.1-0.4,0.2c-0.1,0.1-0.1,0.2-0.2,0.4c-0.1,0.1-0.2,0.2-0.2,0.4
			c-0.1,0.1-0.2,0.2-0.5,0.2c-1.8,0-3.3,0.2-4.6,0.7c-1.3,0.5-2.7,1.1-4.2,1.8c-0.2,0-0.4-0.1-0.6-0.1c-0.2,0-0.4,0-0.6,0
			c-0.8,0-1.4,0.1-2,0.4c-0.6,0.3-1.1,0.7-1.7,1.3c-1.3,0.3-2.5,0.7-3.7,1.2c-1.2,0.5-2.3,1.2-3.4,2.1h-0.2c0,0,0,0,0,0
			c-0.2-0.3-0.3-0.6-0.4-0.9c-1.2-0.9-2.4-1.8-3.8-2.4c-1.3-0.7-2.8-1.2-4.2-1.6s-3-0.7-4.5-0.9c-1.5-0.2-3-0.3-4.4-0.3
			c-0.6,0-1.2,0-1.9,0.1c-0.6,0-1.2,0.1-1.9,0.2c-0.3-0.2-0.7-0.4-1.1-0.4c-0.4,0-0.8,0.1-1.1,0.4c-2.3,0-4.5,0.2-6.7,0.5
			c-2.2,0.4-4.4,0.7-6.6,1.2c-0.2,0.2-0.3,0.3-0.3,0.5c0,0.2-0.2,0.3-0.5,0.3c-0.1,0-0.3,0-0.4-0.1c-0.1-0.1-0.3-0.1-0.4-0.1
			c-0.6,0-1.2,0.1-1.7,0.4c-0.5,0.3-1.1,0.4-1.7,0.4c-0.4,0-0.6-0.1-0.8-0.2c-0.1,0.4-0.3,0.7-0.7,0.9c-0.3,0.2-0.7,0.3-1.1,0.4
			c-0.4,0.1-0.8,0.2-1.1,0.4c-0.4,0.1-0.7,0.4-0.9,0.7c0,0-0.1,0.1-0.3,0.1c-0.1,0-0.3,0-0.4-0.1c-0.1-0.1-0.3-0.1-0.5-0.1
			c-1.2,0.8-2.6,1.5-3.9,1.9c-1.4,0.5-2.7,1.1-3.9,1.8c-0.4,0-0.7,0-1,0.1c-0.3,0.1-0.6,0.3-0.9,0.4c-0.3,0.2-0.6,0.3-0.9,0.4
			c-0.3,0.1-0.6,0.2-1,0.2c-0.2,0-0.4,0-0.5-0.1c-1,0.7-2.1,1.2-3.2,1.7c-1.1,0.5-2.2,1-3.3,1.5c0,0,0,0.1,0,0.1
			c-0.3-0.1-0.7-0.1-0.9-0.2c-0.7-0.2-1.4-0.6-2.3-1.4c-0.5,0.2-0.9,0.6-1.1,1.1c-0.2,0.5-0.6,0.9-1.1,1.1c0,0,0,0.1-0.1,0.1
			c0,0.2,0.1,0.4,0.2,0.4c0.2,0.1,0.2,0.2,0.2,0.4v0.2c-0.6,0.7-1,1.5-1.3,2.5c-0.3,0.9-0.6,1.8-0.8,2.8c-0.2,0.9-0.5,1.8-0.8,2.7
			c-0.3,0.9-0.8,1.6-1.4,2.2c-0.1,0.4-0.2,1-0.2,1.5c-0.1,0.6-0.4,0.9-1,0.9c-0.2,1.2-0.4,2.3-0.8,3.3c-0.4,1-0.8,1.9-1.2,2.9
			c-0.5,0.9-0.9,1.8-1.4,2.7c-0.5,0.9-0.9,1.9-1.2,3c-0.3-0.1-0.5,0-0.5,0.2c-0.1,0.2-0.2,0.3-0.4,0.3c0,0.5-0.1,0.9-0.2,1.3
			c-0.1,0.4-0.4,0.6-0.9,0.7c-0.4,1.8-1.2,3.4-2.4,4.9v1.4c-0.9,0.9-1.7,1.8-2.4,2.9c-0.7,1.1-1.4,2.1-2.1,3.2
			c-0.7,1.1-1.4,2.1-2.3,3c-0.8,0.9-1.8,1.7-2.9,2.3c0,0.4,0.1,0.7,0.3,0.8c0.2,0.2,0.4,0.4,0.4,0.8c-0.5,0.2-0.8,0.5-1.1,0.8
			c-0.2,0.4-0.4,0.8-0.6,1.3c-0.1,0.5-0.2,1-0.3,1.5s-0.1,1-0.1,1.4c0.5,1.4,1.3,2.1,2.5,2.1c0.6,0,1.2-0.2,1.9-0.5
			c0.7-0.3,1.2-0.7,1.7-1.1c-0.1-0.6,0-1,0.2-1.3c0.5-0.2,0.8-0.5,1.1-0.9c0.3-0.4,0.6-0.8,0.9-1.3c0.3-0.4,0.6-0.9,0.9-1.3
			c0.3-0.4,0.7-0.7,1.1-1c0-0.6,0.2-1.1,0.5-1.4c0.3-0.3,0.5-0.7,0.6-1.3c0.2,0,0.4,0,0.6-0.1c0.1-0.1,0.3-0.2,0.3-0.4
			c0.1-0.2,0.2-0.3,0.2-0.5c0.1-0.2,0.2-0.3,0.4-0.4c0.2,0,0.5-0.1,0.7-0.2c0.8,0.2,1.6,0.3,2.4,0.3c0.6,0,1.1,0,1.7-0.1
			c0.6,0,1.1-0.1,1.7-0.1h0.6c0.3,0,0.4-0.1,0.4-0.3c0-0.2,0.1-0.3,0.3-0.3c0.3,0.2,0.6,0.3,0.9,0.3c0.4,0,0.8-0.1,1.1-0.4
			c0.3-0.2,0.7-0.5,1.1-0.6c0.3,0.1,0.6,0.1,0.8,0.1h0.9c1,0,2.1-0.1,3.1-0.3c1-0.2,2-0.5,3-0.8c0.2,0.1,0.5,0.3,0.7,0.5
			c0.2,0.2,0.4,0.4,0.6,0.5c0.3-0.7,0.8-1,1.6-1h0.5c0.5,0.5,0.9,1.2,1.3,1.9c0.4,0.7,0.7,1.4,1.1,2.2c0.3,0.7,0.7,1.4,1,2.1
			c0.4,0.7,0.8,1.2,1.3,1.7c0.4,0.4,0.7,0.5,0.8,0.4c0.2-0.1,0.4-0.1,0.7,0.1c0.2,0.1,0.4,0.2,0.5,0.3c0.1,0.1,0.2,0.3,0.3,0.4
			c0.1,0.1,0.2,0.2,0.4,0.3c0.1,0.1,0.4,0.1,0.7,0.1c0.2,0,0.5,0,0.8-0.1c0.3,0,0.5-0.1,0.8-0.1c0.2,0,0.4,0,0.6,0.1
			c0.2,0,0.4,0.1,0.6,0.2c0.2-0.1,0.3-0.2,0.3-0.5c0-0.2,0.1-0.3,0.3-0.3c0.2,0,0.4,0,0.6,0c0.2,0,0.4,0,0.6,0c0.5,0,1,0,1.5-0.1
			c0.6-0.1,1.1-0.2,1.6-0.4c0.5-0.2,1-0.5,1.4-0.9c0.4-0.4,0.7-0.9,0.8-1.5c-0.3-0.4-0.6-0.8-0.8-1.2c-0.2-0.4-0.5-0.8-0.8-1.2
			c-0.2,0.1-0.4,0.2-0.8,0.2c-0.5,0-1-0.1-1.4-0.4c-0.4-0.2-0.9-0.4-1.4-0.4c-0.5,0-0.9,0.2-1.3,0.5c-0.6-0.4-1.2-0.9-1.8-1.4
			c-0.6-0.5-1-1.2-1.3-1.9c0.9-0.4,1.8-0.5,2.8-0.5c0.3,0,0.6,0,0.7,0.1c-0.2-0.3-0.2-0.5-0.2-0.7c0-0.4,0.2-0.8,0.5-1.1
			c0.3-0.3,0.5-0.7,0.5-1.3c0-0.3-0.1-0.6-0.2-0.9c-0.2-0.1-0.5-0.1-0.7-0.1h-0.6c-0.4,0-0.8,0-1.3,0c-0.5,0-1,0-1.6-0.1
			c-0.5-0.1-1-0.2-1.5-0.4c-0.4-0.2-0.8-0.5-1-0.9c-0.6-1.3-1-2.7-1.3-4.2c-0.3-1.5-0.6-3-0.9-4.3c-0.1-0.5-0.3-1.1-0.4-1.6
			c-0.1-0.5-0.3-1.1-0.5-1.5l-0.4-1.1c-0.2-0.6-0.3-1.3-0.2-2.1c0.1-0.8,0.1-1.5,0-2.1c-0.1-0.8-0.4-1.6-0.7-2.4
			c-0.3-0.8-0.6-1.6-0.7-2.4c-0.2-1.4-0.5-2.8-0.9-4.2c-0.4-1.4-0.8-2.8-1.1-4.2c0-0.1,0-0.2-0.1-0.3c0.1-0.1,0.3-0.1,0.4-0.2
			l1.2-0.8c1.2-0.2,2.2-0.5,3-1c0.9-0.5,1.7-1.1,2.7-1.8h0.2c0.2,0,0.4,0,0.8,0c0.3,0,0.6-0.1,0.8-0.3c0.2-0.1,0.3-0.3,0.3-0.5
			c0-0.3,0.1-0.5,0.3-0.5l0.9-0.2c0.2-0.1,0.4-0.2,0.6-0.4c0.2-0.2,0.4-0.3,0.6-0.4c0.4-0.1,0.8-0.2,1.1-0.3
			c0.4-0.1,0.7-0.2,1.1-0.4c0.8-0.4,1.7-0.7,2.5-1.1c0.8-0.4,1.7-0.6,2.7-0.6h0.4c0.5-0.5,1.1-0.9,1.9-1.1c0.7-0.2,1.4-0.4,2.1-0.6
			c0.2,0.9,0.3,1.8,0.4,2.7c0.1,0.9,0.1,1.8,0.1,2.7c0,1.9-0.1,3.8-0.2,5.7s-0.3,3.8-0.5,5.7c-0.1,0.9-0.1,1.7-0.1,2.6
			c0,0.9,0,1.7-0.1,2.6c0,0.4-0.1,0.9-0.2,1.4c-0.1,0.5-0.2,1-0.2,1.4l-0.7,6.2c-0.2,0.1-0.2,0.2-0.2,0.5c-0.3,0.6-0.7,1.1-1.1,1.5
			c-0.4,0.4-0.7,1-0.7,1.7c0,0.8,0.2,1.4,0.5,1.8c0.3,0.4,0.6,0.9,0.9,1.5c-0.1,1.2-0.2,2.4-0.2,3.7c0,1.3-0.1,2.6-0.1,3.9
			c-0.1,1.3-0.2,2.5-0.4,3.8c-0.2,1.3-0.4,2.5-0.8,3.6c-0.3,0.7-0.4,1.3-0.5,1.9c-0.1,0.6-0.1,1.3-0.1,1.9c0,0.5,0,1,0.1,1.4
			c0,0.5,0.1,1,0.2,1.5c0.1,0.4,0.2,0.8,0.2,1.2c0,0.2,0,0.3-0.1,0.5c-0.1,0.2-0.1,0.3-0.1,0.5c0,0.1,0,0.2,0.1,0.3
			c0.4,0.5,0.8,1,1.1,1.2c0.3,0.3,0.7,0.6,1.3,1.1c0.3,0,0.5-0.2,0.5-0.5c0.1-0.3,0.2-0.6,0.3-0.8c0.6,0.1,1.1,0.4,1.3,0.9
			c0.4-0.3,0.7-0.6,1.1-0.8c0.4-0.2,0.7-0.4,1.1-0.7c0.1-0.4,0.1-0.7,0.1-1.1v-1c0-0.4,0-0.8,0-1.2c0-0.4,0-0.8-0.1-1.2
			c0.1-0.3,0.1-0.6,0.2-0.9c0.1-0.3,0.1-0.6,0.2-1c-0.2-0.4-0.3-0.9-0.3-1.6v-1c0-0.3,0-0.6-0.1-0.9c0.3-0.9,0.4-1.8,0.5-2.9
			c0.1-1,0.1-2.1,0.2-3.1c0.1-1,0.1-2.1,0.2-3c0.1-1,0.3-1.9,0.7-2.6c0.3,0.1,0.6,0.2,0.9,0.3c0.3,0.1,0.6,0.1,1,0.1
			c0.2,0,0.3,0,0.5,0c0.1,0,0.3,0,0.4-0.1c0.3,0.3,0.6,0.5,0.9,0.7c0.3,0.2,0.6,0.4,0.8,0.7c0-0.2,0.2-0.2,0.4-0.2
			c0.1,0,0.2,0,0.4,0.1c0.1,0,0.3,0,0.4,0c0.7,0.4,1.5,0.8,2.2,1.1l2.2,0.9c0.8,0.3,1.5,0.6,2.3,0.9c0.7,0.3,1.5,0.7,2.2,1.1
			c0.5,0,1,0.1,1.5,0.4c0.5,0.3,0.9,0.6,1.3,0.9c0.4,0.3,0.8,0.5,1.3,0.6c0.5,0.2,1,0.3,1.6,0.4c0.5,0.1,1.1,0.3,1.6,0.5
			c0.5,0.2,1,0.4,1.4,0.8h0.3c0.6,0,1.2,0.1,1.9,0.4c0.7,0.2,1.3,0.5,1.9,0.8c0.6,0.3,1.1,0.5,1.6,0.8c0.5,0.3,0.9,0.4,1.1,0.4h2.7
			c0.4,0.4,0.7,0.7,1.1,0.8c0.4,0.1,0.8,0.2,1.2,0.2c0.4,0,0.8,0.1,1.2,0.1c0.4,0.1,0.8,0.3,1.1,0.5c1.1-0.1,2.1,0,3.1,0.1
			c1,0.2,2,0.3,3,0.3c0.1,0,0.2-0.1,0.3-0.1c0.1,0.3,0.2,0.5,0.4,0.7c0.4,0.5,0.7,1,1,1.6c0.1,0,0.3-0.1,0.6-0.1
			c0.5,0,0.9,0.1,1.2,0.4c0.3,0.2,0.6,0.4,1,0.5c0.2,0,0.4,0,0.6,0c0.2,0,0.4,0,0.7,0c0.5,0,1,0.1,1.5,0.2c0.5,0.1,1,0.2,1.6,0.3
			c0.4-0.2,0.8-0.4,1.1-0.8c0.3-0.3,0.5-0.7,0.8-1.1c0.3-0.4,0.5-0.7,0.8-1.1c0.3-0.3,0.6-0.6,1-0.8c-0.1-0.3,0-0.5,0.1-0.6
			c0.1-0.1,0.3-0.3,0.3-0.5c2.9-1.8,5.6-3.8,8.1-6.1s4.7-4.8,6.6-7.7h0.5c0.4-0.8,0.9-1.5,1.4-2.2c0.5-0.7,1.1-1.4,1.6-2.1
			c0.6-0.7,1.1-1.4,1.6-2.1c0.5-0.7,0.9-1.5,1.3-2.3c0.2,0,0.4-0.1,0.5-0.2c0.1-0.1,0.2-0.3,0.2-0.4s0.1-0.3,0.2-0.4
			c0.1-0.1,0.2-0.2,0.5-0.2c0.9-1.8,1.8-3.4,2.8-5c1-1.6,1.9-3.2,2.8-4.8c0.9-1.6,1.6-3.3,2.1-5s0.8-3.7,0.8-5.7v-1.3
			c0-0.4-0.1-0.7-0.2-1.1C529,191.9,528.9,191.6,528.9,191.2z M413.8,227.8c0,0.2-0.2,0.4-0.4,0.6c-0.4,0-0.7,0-0.9-0.2
			c-0.2-0.2-0.5-0.3-0.9-0.4c-0.5,0.1-0.9,0.2-1.4,0.3c-0.5,0.1-1,0.1-1.5,0.1c-1,0-1.8-0.2-2.7-0.5c-0.4,0.3-0.9,0.5-1.6,0.6
			c-0.6,0.1-1.2,0.2-1.8,0.4c-0.3-0.4-0.7-0.6-1.1-0.7c-0.4-0.1-0.8-0.1-1.3-0.1c-0.5,0-0.9,0-1.4,0c-0.5,0-0.9-0.1-1.3-0.4
			c0-0.6,0.1-1.3,0.3-1.9c0.2-0.6,0.5-1.1,1.1-1.5c0.4-1.4,0.9-2.7,1.5-4c0.6-1.3,1.3-2.5,2-3.8c0.7-1.3,1.3-2.5,2-3.8
			c0.6-1.3,1.1-2.6,1.4-4.1c0.4-0.3,0.7-0.6,0.9-1.1c0.2-0.5,0.5-0.8,0.9-1c0-0.3,0-0.6-0.1-0.9s-0.1-0.6-0.1-0.9
			c0-0.4,0.1-0.7,0.2-0.9c0.5,0.4,0.9,0.8,1.1,1.4c0.2,0.6,0.4,1.2,0.6,1.8c0.1,0.7,0.3,1.3,0.5,2c0.2,0.7,0.4,1.2,0.8,1.7v0.2
			c0,0.2-0.1,0.5-0.2,0.7c0.5,1.4,1,2.9,1.3,4.4c0.4,1.5,0.7,3.1,1,4.6c0.1,0.7,0.2,1.4,0.3,2.1c0.1,0.7,0.2,1.4,0.3,2
			c0.1,0.5,0.3,0.9,0.5,1.2s0.3,0.9,0.4,1.7C413.9,227.4,413.8,227.6,413.8,227.8z M446,212.7c-1.1,0.5-2.2,1-3.4,1.2
			c0.1-2.6,0.2-5.2,0.5-7.7c0.2-2.6,0.5-5.1,0.7-7.7c0.1-0.9,0.1-1.8,0.2-2.6c0-0.9,0.1-1.7,0.2-2.6v-1.1c0-0.4,0-0.8,0.1-1.2
			c0-0.2,0.1-0.5,0.2-0.7c0.1-0.2,0.1-0.5,0.2-0.7c0.1-0.6,0.2-1.2,0.2-1.8c0-0.6,0.1-1.2,0.1-1.8v-0.8c0-0.3,0-0.5-0.1-0.8
			c0.3-0.1,0.6-0.2,0.9-0.4c0.3-0.2,0.7-0.3,1.1-0.4c0.4-0.1,0.7-0.3,1-0.4c0.3-0.1,0.6-0.2,0.8-0.3c0.4-0.1,0.8-0.1,1.2-0.1
			s0.9,0,1.3-0.1l2.8-0.2c0.9-0.1,1.9-0.1,2.8-0.1c0.5,0,1,0,1.5,0.1c0.5,0,1,0.1,1.5,0.2c0.2,0,0.4,0.1,0.7,0.1
			c0.2,0.1,0.5,0.1,0.7,0.1h1.2c0.5,0,0.9,0,1.4,0.1c0.5,0.1,0.9,0.2,1.4,0.3c0.9,0.3,1.9,0.6,2.8,1c0.9,0.4,1.8,0.7,2.8,1.1
			c0.2,0.3,0.5,0.6,0.7,0.8c0.3,0.2,0.5,0.4,0.8,0.6c0.3,0.2,0.5,0.5,0.6,0.7c0.2,0.3,0.2,0.6,0.2,1.1c0,0.6-0.1,1.2-0.4,1.8
			c-0.3,0.5-0.5,1.1-0.9,1.6c-0.3,0.5-0.7,1.1-1,1.6c-0.3,0.5-0.6,1.1-0.7,1.6c-1.7,1.6-3.4,3.2-5.2,4.7c-1.8,1.5-3.6,3-5.4,4.6
			c-0.3,0.1-0.5,0.2-0.7,0.4c-0.2,0.2-0.5,0.3-0.8,0.3c-0.3,0.4-0.6,0.8-1.1,1.1c-0.4,0.3-0.8,0.6-1.1,1.1c-1.2,0.4-2.3,1-3.3,1.6
			c-1.1,0.6-2.1,1.3-3.2,1.9C448.2,211.5,447.1,212.1,446,212.7z M483.8,233.9c-0.7-0.2-1.4-0.3-2.2-0.3c-0.2,0-0.4,0-0.7,0
			c-0.2,0-0.5,0-0.7,0.1c-0.2-0.2-0.3-0.4-0.4-0.6c-0.1-0.2-0.3-0.4-0.5-0.5c-0.2,0.1-0.4,0.1-0.8,0.1c-0.8,0-1.5-0.2-2.2-0.5
			c-0.7-0.3-1.4-0.5-2.2-0.5h-0.5c-0.1-0.1-0.2-0.2-0.3-0.3c-0.1-0.1-0.3-0.1-0.4-0.1c-0.1,0-0.2-0.1-0.4-0.1s-0.2-0.2-0.2-0.4v-0.1
			c-0.1,0-0.2,0.1-0.4,0.1h-0.3c-0.6,0-1.3-0.1-1.9-0.3c-0.7-0.2-1.2-0.5-1.7-1c-1.1-0.3-2.2-0.7-3.3-1.1c-1.1-0.4-2.1-1-3-1.8h-1.3
			c-0.8-0.6-1.8-1.1-2.7-1.5c-1-0.4-2-0.8-3-1.1c-1-0.4-2-0.7-3-1.2c-0.9-0.4-1.8-1-2.5-1.7c-0.3,0.1-0.6,0.1-0.9,0
			c-0.3-0.1-0.7-0.2-1-0.4c-0.3-0.2-0.5-0.5-0.8-0.8s-0.3-0.6-0.3-0.9V219c0.7-0.4,1.5-0.8,2.3-1.2c0.8-0.4,1.5-0.9,2.1-1.6
			c1.5-0.5,3-1.2,4.3-2.1c1.3-0.9,2.7-1.7,4.2-2.3c0.5-0.7,1-1.3,1.7-1.6c0.6-0.4,1.3-0.8,1.9-1.3c0.3-0.2,0.7-0.5,1.2-0.9
			c0.5-0.4,0.9-0.6,1.3-0.6c0.1,0,0.2,0,0.3,0.1c0-0.4,0.1-0.8,0.2-1c0.2-0.2,0.4-0.4,0.6-0.6l0.8-0.5c0.3-0.2,0.4-0.4,0.5-0.7h1.1
			c0.3-0.5,0.4-0.9,0.4-1.3c0.9-0.4,1.7-0.9,2.4-1.6c0.7-0.7,1.2-1.4,1.8-2.2c0.5-0.8,1-1.6,1.6-2.5c0.5-0.8,1.1-1.6,1.8-2.3
			c0.1-0.8,0.2-1.4,0.5-1.9c0.3-0.5,0.6-1.1,1-1.7c0-0.3,0-0.6,0-0.9c0.6-0.2,1.2-0.5,1.7-0.7c0.6-0.3,1.2-0.6,1.8-1
			c0.6-0.4,1.1-0.8,1.5-1.3c0.3,0,0.5,0,0.7-0.1c0.2-0.1,0.3-0.2,0.5-0.3c0.1-0.1,0.3-0.2,0.4-0.4c0.1-0.1,0.3-0.2,0.6-0.2h0.2
			c0.1,2.2,0.2,4.3,0.5,6.4c0.3,2.1,0.4,4.3,0.4,6.5c0,0.6,0,1.2-0.1,1.9c0,0.6-0.1,1.3-0.3,1.9c0.2,0.6,0.3,1.2,0.3,1.7
			c0,0.2,0,0.4-0.1,0.6c0,0.2-0.2,0.4-0.4,0.5c0.2,0.2,0.3,0.4,0.4,0.7c0.1,0.2,0.2,0.5,0.2,0.8c0,0.3,0,0.7-0.1,1
			c-0.1,0.3-0.2,0.7-0.2,1.1c-0.1,0.8-0.2,1.7-0.2,2.7v2.9c0,0.9,0,1.9-0.1,2.8c-0.1,0.9-0.2,1.8-0.5,2.6l0.2,0.5
			c0.1,0.2,0.1,0.4,0.2,0.6c-0.3,0.7-0.4,1.5-0.5,2.2c-0.1,0.8-0.1,1.5-0.1,2.3c0,0.3,0,0.6,0.1,1c0,0.3,0,0.7-0.1,1
			c0,0.2-0.1,0.4-0.2,0.6c-0.1,0.2-0.2,0.4-0.2,0.5c0.3,0.3,0.4,0.5,0.4,0.9c0,0.3,0,0.6-0.1,0.8c-0.1,0.3-0.1,0.6-0.1,0.8
			c0,0.9,0.2,1.7,0.5,2.6c0.1,0.2,0.1,0.4,0.2,0.6C484.9,234.3,484.4,234.1,483.8,233.9z M524.2,194.4c0,0.3-0.1,0.5-0.2,0.7
			c-0.1,0.1-0.3,0.3-0.5,0.5c0.1,0.8,0,1.5-0.1,2.2c-0.1,0.7-0.3,1.3-0.5,1.9s-0.4,1.2-0.7,1.9c-0.2,0.6-0.4,1.3-0.4,2.1
			c-0.8,1.2-1.6,2.3-2.3,3.5c-0.7,1.2-1.4,2.4-2.2,3.5c-0.3,0.4-0.6,0.8-0.8,1.1c-0.3,0.3-0.6,0.7-0.8,1c-0.1,0.1-0.2,0.3-0.4,0.4
			c-0.2,0.1-0.3,0.3-0.4,0.4c-0.2,0.2-0.3,0.4-0.4,0.6c-0.1,0.2-0.2,0.4-0.3,0.6c-0.3,0.5-0.6,1.1-0.9,1.6s-0.7,1-1,1.5
			c-1.2,1.6-2.4,3.2-3.8,4.6c-1.4,1.5-2.7,2.9-4.1,4.3l-2.4,2.6c-0.2,0.2-0.3,0.4-0.5,0.5c-0.1,0.2-0.3,0.3-0.5,0.5
			c-0.2,0.1-0.5,0.4-1,0.7c-0.5,0.3-0.9,0.6-1.1,0.7c-1,0.7-2,1.4-3,2.2c-0.6,0.4-1.2,0.8-1.9,1.1c-0.1-0.3-0.2-0.5-0.4-0.8
			c-0.2-0.4-0.4-0.9-0.4-1.3v-0.1c-0.7,0-1.5,0.1-2.2,0.2c0-0.3,0.1-0.6,0.2-0.8c-0.1-1.2-0.3-2.4-0.3-3.6c-0.1-1.2-0.1-2.4-0.1-3.6
			c0-1.3,0.1-2.6,0.2-3.9s0.3-2.6,0.4-3.9c0-0.1,0-0.3,0-0.4c0-0.1,0-0.3,0-0.4c0-0.4,0-0.7-0.1-1.1c0-0.3-0.1-0.7-0.1-1
			c0-0.5,0.1-1,0.3-1.4c0.2-0.4,0.3-0.9,0.4-1.4c0-0.4,0.1-0.7,0.1-1.1c0-0.4,0-0.7,0-1c0-1.3-0.1-2.5-0.2-3.8
			c-0.1-1.2-0.2-2.5-0.2-3.8c0-0.5,0-1.1,0.1-1.6c0-0.5,0.1-1.1,0.2-1.6c-0.2-0.4-0.3-0.9-0.4-1.4c0-0.5-0.1-1-0.1-1.5
			c0-0.5,0-1,0-1.5c0-0.5-0.1-1-0.3-1.4c0.1-0.3,0.2-0.7,0.2-1c0-0.3,0.1-0.7,0.1-1c0-0.9-0.1-1.9-0.3-2.8c-0.2-0.9-0.3-1.9-0.3-2.8
			c0-0.2,0-0.3,0-0.5c0-0.1,0-0.3,0-0.5c0.2,0,0.4,0,0.4-0.1c0.1-0.1,0.1-0.2,0.1-0.3c0-0.1,0-0.2,0.1-0.4c0-0.1,0.1-0.2,0.2-0.3
			c0.2-0.1,0.4-0.2,0.8-0.2c0.2,0,0.4,0,0.6,0.1c0.2,0,0.4,0.1,0.6,0.2c0.7-0.5,1.4-0.8,2.2-1.1c0.8-0.2,1.7-0.4,2.6-0.6
			s1.7-0.4,2.6-0.6c0.9-0.2,1.6-0.5,2.4-0.9c0.3,0.2,0.7,0.3,1,0.3c0.3,0,0.6-0.1,0.9-0.2s0.6-0.2,0.9-0.2c0.2,0,0.4,0,0.6,0
			c0.2,0,0.4,0,0.7,0c1.4,0,2.7,0.2,4.1,0.6c1.3,0.4,2.7,0.8,4,1.2c0.5,0.7,1.1,1.2,1.9,1.5c0.8,0.4,1.5,0.7,2.2,1
			c0.2,0.9,0.6,1.4,1.3,1.6c0.3,0.3,0.6,0.6,0.7,0.9c0.1,0.3,0.4,0.5,0.9,0.5c0.3,1,0.6,2,1,3c0.4,1,0.6,2,0.6,3.1V194.4z"/>
	</g>
</g>
<g id="ink_redraw">
	<g>
		<path d="M212.4,196.6c0.9-0.5,2.8-3.2,5.8-4.1c3-0.9,14.6-3.9,18.4-5.3c3.7-1.4,11.2-5.1,15.5-5.4c4.3-0.3,1.1-4.3-1.2-4
			c-2.3,0.3-4.7,2.1-11.9,6s-10.4,3.7-13.9,4.7c-3.6,1-11.8,4.8-14.3,6C208.2,195.7,212.4,196.6,212.4,196.6z"/>
		<path d="M352.7,40.8c-2.2-0.8-8.6,2.1-11,3c-2.3,0.9-14.9,6.1-19.1,7.6s-5.9,3.9-10.7,5.7c-4.8,1.9-9.3,4.7-11.1,5.9
			c-1.8,1.2-8.1,4.2-8.1,4.2s-0.1-0.1-0.3-0.2V53.5c0.3-0.1,0.6-0.3,1-0.4c1.4-0.4,0.4-1.9-1-2V50h-1.9c-0.2-1.8,0.5-5,1.2-6.1
			c1-1.8,0.1-1.5-1.4-2.8s-2.4,0.8-3.7,0.5c-1.4-0.4-3.2,0-3.8,0.4c-0.6,0.4-0.9,1.4-2.2,2.2c-1.3,0.8-4.2,0.4-5.4-0.2
			c-1.2-0.6-4.6,1.8-4.9,1.2c-0.3-0.6,0.3-1.1,0-1.7s-1.4,0-3,0.9c-1.6,0.9-4.1,0.6-4.1,0.6s-1-1-1.3-1.5c-0.3-0.5,0.5-1.4,0.9-1.8
			c0.3-0.3,1.9-1.6,1.4-1.6s-0.8-1.7-1.9-2.7c-1.1-1-0.5-3.8-0.4-4.9c0.1-1.1,1.6-2.5,2.3-3.4s1.5-0.9,3.9-2
			c2.3-1.1,3.2-3.7,0.7-4.5c-2.5-0.8-3.1,0.6-3.5,2c-0.4,1.4-2.1,3.3-3.8,3.9c-1.7,0.6-2.5,2-3.6,3.7c-1,1.7,0.1,1.7,0.4,5
			c0.3,3.3-0.7,3.4-1.5,3.8c-0.8,0.4-2.6,0.1-4.2,0.5s-2.1,0.1-2.8-0.3c-0.7-0.5-0.7-2.3-3.2-2.5c-2.5-0.2-3.1-1.6-3.9-3
			s-2.4-2.2-4.4-0.8c-2,1.4-2.5,1.1-3,0.9c-0.5-0.2-0.4-1.8-2.9-2.8c-2.5-1-3.8-1.5-5-0.7c-1.2,0.8-1.3,1.3-3,0
			c-1.7-1.3-2.5-1-4.2-0.2c-1.7,0.8-1.1,4.3-1.3,6.1c-0.2,1.8-2.1,0.9-2.4,0.1c-0.3-0.8-1-1.5-1.7-1.4c-0.7,0.1-1.3-2.3-2.2-3.8
			c-0.9-1.4-3-1.5-3.3-1c-0.3,0.5,0,1.7,0.4,2.7c0.4,1,1.4,4.1,0.4,6.3s-1.7,0.4-2.9,1.8c-1.2,1.4,0.8,5.1,0.8,5.1s0.2,1,0.3,2.1
			H190c-1.1-1.9-0.8-5.2-1.5-7.3c-0.9-2.5-0.5-3.4-1.3-6.1c-0.8-2.7-3.5-6.8-4.6-7.7c-1.1-0.9-3.9-0.5-5.4-1.1
			c-1.5-0.5-1.6-2.9-3.1-5.1c-1.6-2.2-3.5-2.3-3.9-1.9c-0.4,0.5,0,1.6,1.5,2.5c1.4,0.9,2.1,3.2,4.2,5.5c2.1,2.3,2.9,3.4,3.7,2.7
			c0.8-0.7,1.5,0.2,2.2,1.3c0.7,1.1,1.3,4.3,2.6,5.5c1.2,1.3,0.9,2.5,1,3.8c0.1,1.3-0.1,5-0.4,6.6c-0.1,0.3,0,0.6,0,1H72.6v33.5
			c-15.8,3-37.3,7.1-42,8.4c-7.7,2.2-17.2,4.5-16.8,7c0.4,2.5,7.1,1.1,8.3,0.8c1.2-0.3,5.5-2.7,20.7-6.4c7.7-1.9,19.8-5.2,29.8-8.1
			v5.8c0,0-0.1,0.1-0.1,0.1c-0.1,0.2,0,0.3,0.1,0.4v9.4c-2.6,0.5-5.5,1.1-6.6,1.4c-2.4,0.6-6.3,4.3-6,5.4c0.3,1.1,2.4,3,5.1-0.3
			c1.4-1.8,4.7-3.7,7.6-5.2v167.4h219.9V118.6c0.3,0,0.7,0,1,0.2c0.4,0.2,1,1.2,1.6,2.4c0.6,1.2,2.1,2,2.5,1.9
			c0.4-0.2,0.6-0.7,1.6,0.7c1,1.4,0.7,2.9,1,4.6c0.3,1.7,1.5,0.9,1.9,0.1c0.4-0.7-0.1-1.3-0.6-2c-0.5-0.6-1.6-3.6-0.9-3.8
			c0.7-0.2,0.7-0.3,0-1c-0.7-0.7-2-1.6-2.4-2.3c-0.4-0.7-0.5-0.9,0.5-1.2c0.9-0.3,2.3,1.3,4.1,1.3s2,0,1.8-1.4
			c-0.2-1.4-2-1.6-4.2-1.7s-2.6-0.4-3.1-0.7c-0.5-0.3-0.4-1.4-0.1-1.9c0.2-0.4,0-1.4-0.1-1.8c0.2,0.4,1.6,1.3,3.1,2
			c1.6,0.7,1.7,0.5,1.7-0.2s0.4,0.5,1.3,1c0.9,0.5,1.4,2.1,1.6,1.4c0.2-0.7,0-1.7,0.1-2.4c0.1-0.7-0.4-1,1.9-0.8
			c2.3,0.1,2.7,0,5-0.7c2.3-0.7,2.3-2.9,2.8-3.6c0.4-0.7-0.3-4-0.3-4.6c0.1-0.7,2.1-1,2.6-1.7c0.5-0.7-1.4-3.8-1.9-4.5
			c-0.5-0.7,0.1-2.1-0.3-3.5c-0.4-1.4-1.4-0.5-2.7-0.5s-0.1-0.7,0.2-1.5c0.3-0.8-0.5-2-2.5-2.9c-1.9-0.9-5.1-0.4-7.2-0.5
			s-4.2,1.7-6.9,2.2c-1.9,0.3-2.3,1.2-3,1.9V69.4c3.2-2,10.8-5.5,14-6.9c3.7-1.6,12-5,14.5-7.1c2.6-2.1,5.6-1.9,8.8-3.9
			c3.2-2,8.1-3.3,11.6-4.2c3.5-1,8.8-1,11.9-2.4C356.4,43.5,355.5,41.8,352.7,40.8z M193.2,200.1c-18.1,7.8-25.4,9.7-62.6,16.5
			c-11.5,2.1-17.6,3.5-20.8,4.6c0.1-1.9,0.3-4.3,1.1-7.2c1.7-6.2,6.5-18.5,7.5-21.1c0.3-0.7,0.7-2,1.2-3.4c3.1-1.8,8.5-4.9,10.5-6.2
			c2.8-1.7,18.1-10.8,20.5-12.1c1.6-0.8,3.6-2.3,5.4-3.5c1.1-0.2,2.5-0.3,4.5-0.6c8.2-0.9,12.3-2.3,15.4-3.5
			c3.1-1.3,8.3-4.8,11.7-7.1c3.5-2.3,8.9-3.4,10.7-3.6c1.9-0.2,3.3,0.9,6.6-0.5c3.3-1.4,3.6-2.8,5.8-3.5c2.1-0.7,1.3-0.4,5.1-0.8
			c3.8-0.4,3-2.5,2.2-2c-0.8,0.5-5.5,0.5-7.1,0.6c-1.6,0.1-2.3,2-3.9,2.2c-1.5,0.2-1.1,1.3-3.4,2c-2.4,0.7-2.4,0.5-3.3-0.8
			c-1-1.3,4.3-1.9,6.8-2.8c2.5-0.9,7.2-3,10.7-4.4c3.5-1.5,8.3-2.8,6.8-2.9c-1.4-0.2-4.9,1.1-11.5,3.5c-6.7,2.3-19.4,4.1-24.8,5.3
			c-5.4,1.2-18,6.1-31,9s-11.1,2.1-21.6,3.1c-2.8,0.3-5.6,0.4-8.3,0.5c0.2-0.7,0.4-1.4,0.6-2.1c2.1-7.3,3.6-16.1,5.5-17.7
			c1.9-1.7,6.4-2.8,6.7-5.4c0.3-2.5-0.4-2.7,1.1-4.5c1.5-1.8,18.5-8.9,23.9-13.7c1.4-0.2,2.6-0.4,3.2-0.4c1.6-0.1,7.7,0.7,10.9,0.7
			c3.2,0,9.8-1.8,12.6-1.3c2.7,0.4,5.2,0.3,6.2,0.1c0.9-0.1,7.9-1.5,8.1-0.5c0.2,0.9-10.5,7.7-13,9.2c-2.5,1.5-4.5,2-2.7,2.9
			c1.8,0.9,5.7-2.2,7.2-4.4c1.5-2.2,5.5-3.6,8.6-5c3.1-1.4,10.3-4.5,12.2-4.9c2-0.4,2.6-1,3.7,1s0.5,1.4,0.1,2.5s-1,0.8-1.7,1.8
			c-0.6,1-0.6,3.2-0.4,2.9c0.3-0.3,2-1.7,3-1.5c1.1,0.1,0.5,1.5,0.2,1.7s-0.2,0-2.1,0.9s-1.4,1.4-1.4,2.2c0.1,0.8-1.3,1.8-2,2.3
			c-0.7,0.5-0.6,2.1-0.3,2.7c0.2,0.6,1.5,0.2,2.5-0.1c1-0.3,1.3-0.6,1.7-1c0.4-0.4,2.3-2.7,2.3-1.6c0,1.1,0.4,0.9,1.2,0.5
			c0.8-0.4,1.6-1.2,1.7-1.5c0.1-0.3-1.6-0.5-2.2-0.5s-1.1,0-0.4-1c0.6-1-0.1-1.7,0-2.1c0-0.4-0.3-0.3,0.7-0.7
			c1.1-0.4,0.3-0.1,0.8-1.7c0.5-1.6,1.9-2.3,2.5-2.4c0.7-0.1,1.1,1,2.2,0.8c1.1-0.3,2.1-1.7,3.4-1.8c1.3-0.1-0.1,4.6-0.5,6.1
			c-0.5,1.6-0.5,2.6,0.5,2.7c1,0,2.8,0.6,3.1,1.1c0.3,0.5-1.4,2.2-2.2,5c-0.8,2.9-1.6,4.1-1.9,6.7c-0.3,2.5,2.3,1.3,3.5,0.9
			c1.2-0.3,1.3-1.3,1.5-1.9c0.2-0.6-0.2-0.4-1-0.3c-0.8,0-0.5-1.2,0.2-1.5c0.7-0.2,1.6-0.8,1.9-1.6c0.3-0.8-0.3-2.1-0.3-3.6
			c0-1.5-0.5-1.2,0.2-2.5c0.8-1.3,1.2-3.6,1.3-4.3c0.1-0.7-0.2-1.6,0.8-2.4c1-0.8,1.3-1.7,2.1-1.9c0.8-0.2,0.6,1.7,1.6,1.4
			c1-0.3,3.4,2.2,5.5,2.2c2.1,0,3.1-0.5,3.9-0.6c0.8,0,2.5,0.9,4,3.1c1.4,2.1,2,0.6,2.2,0.3s-1-2.5,1.5-2.5c2.5-0.1,5.6,0.8,6.6,1.4
			c1,0.5,5.7,3.6,5.2,0.3c-0.5-3.3-0.1-3,0.4-3.1c0.5-0.1,0.6,1,1.9,0.3c1.3-0.7,2.2-0.5,2.6-0.3c0.4,0.2,0.2,1.8,2.3,1.4
			c2.1-0.5,3.2-1.1,4-1.7c0.8-0.6-0.2-0.8,1.1-2.5c0.2-0.3,0.5-0.5,0.8-0.6v50.5c-0.1,0-0.2,0.1-0.4,0.2c-1.8,1-1.6,1.1-3.5,2.8
			c-1.9,1.7-1.9,2.8,0,2c0,0,2.3-1.8,3.8-2.8v5.5c-0.6,0.2-1.7,0.6-3.3,1.4c-2.9,1.4-1.3-0.1-5.4,0.7c-4.1,0.8-2.8,1.1-5.3,2.1
			c-2.5,1.1-30.2,8.2-37.6,13.1c-7.3,4.9-35.8,8.1-29.7,5.8C211.5,197.7,211.4,192.3,193.2,200.1z M88.4,91.8c1-0.5-0.1-1.3,0.1-1.5
			c0.2-0.2,0.5,0.1,1.7,0.3c1.2,0.2,2.3,1.6,0.5,2.3c-1.8,0.7-1.7,1.7-0.7,1.9c1,0.3,3.5,0,3.5,0c-0.3,0.3-0.3,0.9,0.4,0.9
			c0.7,0,0.3-0.9,0.3-0.9s0.4,0.2,0.6,0.4c0.2,0.2,0.2,0.9,0,2c-0.2,1.1-2.5,2-1.7,2.9s4.3-0.4,6.2-0.4c1.9,0,1.8,1.5,1.8,2.2
			c0.1,0.7,2,0.8,2.7,0.9c0.7,0.1,0.1,0.6-0.1,1.3c-0.2,0.6,2,0.2,1.1,0.6c-0.9,0.3-2.7,1.5-6.9,5.5c-4.2,4-5.6,6.9-4.8,7
			c0.8,0.1,9-5.1,10.4-5.6c1.4-0.5,3.3,0.3,4.9-0.2c1.6-0.4,0.5-1.1,1.8-1.5c0.9-0.2,1.7,0,2,0.2c1.3,0.7,3.8,2.7,4.4,7.8
			c0.8,6.9,2.1,7.7,0.2,11.3c-1.9,3.6-4.7,8.9-6.4,15c-1.4,5.3-4.3,13.1-5.9,18.5c-2.1,0.4-4,0.8-5.6,1.3c-2.7,0.9-8.4-0.2-10.6,0
			s-2.6,2-3.1,4.2c-0.4,2.2,0.1,3.3-0.2,5.2c-0.3,1.8-1.7,1.9-1.7,4.7c0,2.8,0,2.4-0.4,3.8c-0.3,1.4,4.2,5.6,4.2,5.6
			s0.9,1.3,1.7,1.2c0.8-0.1,0.7,0.9,2.1,1.8c1.3,0.8,1.1,0.2,2.8,0c0.2,0,0.9-0.2,1.8-0.5c0,0.3-0.1,0.5-0.1,0.8
			c-1.5,10.7-2.3,17.7-2.7,21.8c-0.2,2.6,0,5.6,0.1,8.1c-0.9-0.5-1.8-1.1-2.7-1.6c-5.4-2.8-5.5-10.7-9.4-12c-1-0.3-1.8-0.1-2.4,0.4
			V91.9c1.5-0.4,4.9-1.3,6-1.5c1.2-0.2,2.6-0.3,2.8-0.3c-0.1,0-0.2,0.1-0.4,0.6C86.5,91.4,87.4,92.3,88.4,91.8z M119.7,189.2
			c1.1-3.5,2.5-7.8,2.9-7.9c0,0,0.1-0.1,0.2-0.2c4.2-1.3,9.1-2.8,12.6-4.2c2.9-1.2,6.4-2.9,9.6-4.5c-1.5,1.4-3.3,3-4.8,3.6
			C138.1,176.7,125.1,185.5,119.7,189.2z M145.5,126.9c0,0,2.4-3.9,2.7-6.2c4.2-0.8,9.7-1.6,10.4-1.7c0.4-0.1,2.1-0.4,3.9-0.7
			c-1.2,0.6-2.7,1.3-4.2,2C150.2,123.6,145.5,126.9,145.5,126.9z M286.2,90.1c0.1,0.2,0.3,0.2,0.5,0.3v1c0,0,0,0,0,0
			c-0.5,0.1-0.8,0.3-0.8,0.9s0.4,0.7,0.6,1.2c0.2,0.5,0.1,1.2,0.1,1.8c0,0.6-0.1,0.7,0,1c0,0.1,0.1,0.2,0.2,0.3v7.1
			c-0.2-0.2-0.4-0.5-0.6-0.8c-0.5-0.6,0.3-0.2-0.6-1.8c-0.9-1.6-2.4-2.5-3.2-2.9c-0.8-0.4-1.1-0.9-1.4-1.3c-0.3-0.5,0.3-2.3,0.4-2.9
			c0.1-0.7-0.1-0.5,0.5-1.9c0.6-1.4,2.3-3.1,2.6-3.4c0.3-0.3,0.5-0.2,1.1-0.5c0.6-0.3,0.4-1,0.4-1.2c0-0.1,0.4-0.4,0.8-0.6V89
			c-0.1,0.1-0.2,0.1-0.4,0.2C285.5,89.6,286,89.5,286.2,90.1z M286.7,60.8c-1.3,0.1-2.9-0.2-3-0.6c-0.1-0.4,1.7-1.5,2.2-1.9
			c0.2-0.1,0.5-0.5,0.8-0.8V60.8z M199.7,55.8h3c-0.3,0.2-0.5,0.5-0.6,0.6c-0.6,0.9-1.2,0.9-1.8,0.6
			C199.9,56.8,199.8,56.4,199.7,55.8z M187.4,55.8c1,1.5,2.6,3.4,1.5,3.8c-1.2,0.4-3.7-0.7-8.5-0.4c-4.8,0.3-3.4,2.1-2,2.5
			c1.4,0.5,6.6,0,6.6,0c-0.5,0.1-2.1,2.6-2.1,2.6s1.5,0-5.6,0.9s-31.2,5.1-36.7,5.4c-5.5,0.3-3.9,1-11.2,0.1
			c-7.3-0.9-26.1,1.7-27.7,1.8c-1.6,0.1-1.1,0.8-2.5,0.8s-1.7,0.6-3.9,1.3c-2.2,0.7-8.8,2.1-14.4,2.9c-0.9,0.1-1.8,0.3-2.6,0.5V61.8
			c0.1,0,0.2,0.1,0.3,0.1c3.4,1.3,5.2,2.9,7.6,5.5c2.4,2.6,5.8,6.5,5.8,6.5S84,62.3,82.3,61c-1-0.8-2.5-1.9-3.9-2.6v-2.6H187.4z
			 M78.3,80.3c1.4-0.1,2.2-0.5,2.6-0.6c0.5-0.2,1.8-0.3,3.1-0.5c1.3-0.1,2.7,0.5,3.3,0.4c0.6-0.1,0.8-0.4,1.7-0.4
			c0.8,0,0.6,0.4,0.5,1.3c-1.3,0.2-5.5,1-11.2,2.1V80.3z M89.5,80.4c0,0.1,0,0.2-0.1,0.3c-0.2,1,0.1,1.4-0.3,1.9
			c-0.4,0.5-1.7,0.8-3.3,1.9c-1.6,1.1-4.6,1.7-6.6,2.5c-0.3,0.1-0.6,0.3-0.9,0.4v-3.8C83.9,82.1,88.2,80.8,89.5,80.4z M78.3,215.5
			c1.5,0.8,3.4,1.9,4.8,4.5c2.3,4.3,0.8,7.4-1.3,12.4c-2.1,5-3.2,6.1-1,8.9c2.2,2.8,1.7,6.2,2.6,10.7c0.8,4.5,1.7,6.9,4,10.1
			c0.6,0.8,1,1.5,1.4,2.1H78.3V215.5z M157.6,264.2c0.3,0,0.7-0.1,1-0.1c10.3-1.6,25.3-4.1,29.4-4.6c4.1-0.5,29.4,0.6,45.7-0.4
			c16.3-1.1,29-3.1,40-5.3c7.8-1.5,11.5-2.3,13-2.5v1.9c-1.8,0.5-3.8,1.1-4.8,1.4c-2.1,0.6-2.8,0.5-4.2,1.1
			c-1.5,0.6-9.9,2.1-9.6,2.4c0.4,0.3,6.1-0.4,6.9-0.8c0.8-0.4,2.9-0.1,4.5-0.8c1.6-0.7,2.1-0.8,3.6-1.4c0.7-0.2,2.1-0.8,3.5-1.4
			v10.6H157.6z"/>
		<path d="M324.6,65.1c-1.5,0.9-1.3,0.6-4.3,1.8c-3,1.2-1.5,0.4-4.6,1.7c-2.6,1.1-3.1,1.1-5.7,1.9c-0.5,0.2-9.6,2.1-9.3,2.6
			c0.5,0.8,6.8-0.6,8.8-1.2c0.7-0.2,4.3-0.9,5.7-1.4c3-1.1,3.2-0.8,6.4-1.7c3.2-0.9,4-1,6-1.8c1.7-0.7,4.4-1.6,2.5-3.3
			C328.6,62.2,326.2,64.1,324.6,65.1z"/>
		<path d="M312.9,42.9c2.1-1.2,5.9-2.6,7.9-3.1c2-0.5,3.3-4.1,3.3-4.1s-0.4-3.3,3.9-4.3c4.4-1,3.6-3,2.7-4.4c-1-1.3-2.9,0.5-4.6,2.4
			c-1.7,1.9-3.9,1.7-5.7,2.1c-1.8,0.4-4,2-4.7,2.8c-0.7,0.8-2,1.3-2.9,2.4c-0.9,1.1,3.7,1.3,0.4,3.9c-3.3,2.6-3,3.5-3,3.5
			C310.8,44.7,310.8,44,312.9,42.9z"/>
		<path d="M274.9,28.7c-1.1,2.9-3.6,11-3.6,11s4.5-10.9,5.1-11.4C277,27.7,276,25.8,274.9,28.7z"/>
		<path d="M287.2,33.4c1.8-0.8,2-1.3,3-2.3c1-1,0.4-1.6,1.2-3.4c0.8-1.8,1.2-0.7,3.2-1.2c2-0.5,1.1-0.9,1.3-1.7
			c0.2-0.8-0.9-1.4-1.8-1.1c-0.8,0.3-1.9,1.1-3.9,1.6c-2,0.5-1.8,1.1-3.6,2.2s-1.4,1.5-2.9,2.6c-1.5,1.1-1.1,4.5-1.1,4.5
			C283.3,34.6,285.4,34.2,287.2,33.4z"/>
		<path d="M154.3,63.4c1.4,1.2,4.1,0.1,7.3,0.6s7.5,0.8,7.5,0.8c1.5-0.2-0.1-0.8-1.7-2c-1.6-1.2-2.4-0.8-3.1-0.4s-4.4-1.6-6.6-2.1
			c-2.2-0.6-3.6,0.1-5.4,0.4C150.4,61.1,152.9,62.2,154.3,63.4z"/>
		<path d="M98,100.5c0,0-1.4,0.7-2.6,1c-1.2,0.3-2.2,0.5-2.9,1c-0.7,0.5,0.2,1.7,0.2,1.7C95.1,104,98,100.5,98,100.5z"/>
		<path d="M300.3,76.2c-0.8-0.4-1.8-0.8-3.1-1.4s-1.1-0.3-1.7-0.3c-0.6,0-0.9,1-0.9,1s0.6-0.2,0.8-0.2c0.2,0,2,0.9,3.1,1.8
			c1.1,0.9,1.6,1.3,2.1,1.3c0.4,0,1.7-0.4,1.6-1.5C302.2,75.8,301.1,76.6,300.3,76.2z"/>
	</g>
</g>
</svg>
