<svg xmlns="http://www.w3.org/2000/svg" viewBox="0 0 359.5 296.2" style="enable-background:new 0 0 359.5 296.2" xml:space="preserve"><path style="fill:#fff" d="M52.7 39.7H295V282H52.7z"/><path d="M204.3 196.6c.9-.5 2.8-3.2 5.8-4.1 3-.9 14.6-3.9 18.4-5.3 3.7-1.4 11.2-5.1 15.5-5.4 4.3-.3 1.1-4.3-1.2-4-2.3.3-4.7 2.1-11.9 6s-10.4 3.7-13.9 4.7c-3.6 1-11.8 4.8-14.3 6-2.7 1.2 1.6 2.1 1.6 2.1z"/><path d="M344.6 40.8c-2.2-.8-8.6 2.1-11 3-2.3.9-14.9 6.1-19.1 7.6s-5.9 3.9-10.7 5.7c-4.8 1.9-9.3 4.7-11.1 5.9-1.8 1.2-8.1 4.2-8.1 4.2s-.1-.1-.3-.2V53.5c.3-.1.6-.3 1-.4 1.4-.4.4-1.9-1-2V50h-1.9c-.2-1.8.5-5 1.2-6.1 1-1.8.1-1.5-1.4-2.8s-2.4.8-3.7.5c-1.4-.4-3.2 0-3.8.4-.6.4-.9 1.4-2.2 2.2-1.3.8-4.2.4-5.4-.2-1.2-.6-4.6 1.8-4.9 1.2-.3-.6.3-1.1 0-1.7s-1.4 0-3 .9-4.1.6-4.1.6-1-1-1.3-1.5c-.3-.5.5-1.4.9-1.8.3-.3 1.9-1.6 1.4-1.6s-.8-1.7-1.9-2.7c-1.1-1-.5-3.8-.4-4.9.1-1.1 1.6-2.5 2.3-3.4s1.5-.9 3.9-2c2.3-1.1 3.2-3.7.7-4.5-2.5-.8-3.1.6-3.5 2-.4 1.4-2.1 3.3-3.8 3.9-1.7.6-2.5 2-3.6 3.7-1 1.7.1 1.7.4 5 .3 3.3-.7 3.4-1.5 3.8-.8.4-2.6.1-4.2.5s-2.1.1-2.8-.3c-.7-.5-.7-2.3-3.2-2.5-2.5-.2-3.1-1.6-3.9-3s-2.4-2.2-4.4-.8c-2 1.4-2.5 1.1-3 .9-.5-.2-.4-1.8-2.9-2.8-2.5-1-3.8-1.5-5-.7-1.2.8-1.3 1.3-3 0s-2.5-1-4.2-.2c-1.7.8-1.1 4.3-1.3 6.1-.2 1.8-2.1.9-2.4.1-.3-.8-1-1.5-1.7-1.4-.7.1-1.3-2.3-2.2-3.8-.9-1.4-3-1.5-3.3-1-.3.5 0 1.7.4 2.7.4 1 1.4 4.1.4 6.3s-1.7.4-2.9 1.8.8 5.1.8 5.1.2 1 .3 2.1h-18.4c-1.1-1.9-.8-5.2-1.5-7.3-.9-2.5-.5-3.4-1.3-6.1-.8-2.7-3.5-6.8-4.6-7.7-1.1-.9-3.9-.5-5.4-1.1-1.5-.5-1.6-2.9-3.1-5.1-1.6-2.2-3.5-2.3-3.9-1.9-.4.5 0 1.6 1.5 2.5 1.4.9 2.1 3.2 4.2 5.5s2.9 3.4 3.7 2.7c.8-.7 1.5.2 2.2 1.3.7 1.1 1.3 4.3 2.6 5.5 1.2 1.3.9 2.5 1 3.8.1 1.3-.1 5-.4 6.6-.1.3 0 .6 0 1H64.4v33.5c-15.8 3-37.3 7.1-42 8.4-7.7 2.2-17.2 4.5-16.8 7 .4 2.5 7.1 1.1 8.3.8 1.2-.3 5.5-2.7 20.7-6.4 7.7-1.9 19.8-5.2 29.8-8.1v5.8l-.1.1c-.1.2 0 .3.1.4v9.4c-2.6.5-5.5 1.1-6.6 1.4-2.4.6-6.3 4.3-6 5.4.3 1.1 2.4 3 5.1-.3 1.4-1.8 4.7-3.7 7.6-5.2v167.4h219.9V118.6c.3 0 .7 0 1 .2.4.2 1 1.2 1.6 2.4.6 1.2 2.1 2 2.5 1.9.4-.2.6-.7 1.6.7s.7 2.9 1 4.6c.3 1.7 1.5.9 1.9.1.4-.7-.1-1.3-.6-2-.5-.6-1.6-3.6-.9-3.8.7-.2.7-.3 0-1s-2-1.6-2.4-2.3c-.4-.7-.5-.9.5-1.2.9-.3 2.3 1.3 4.1 1.3s2 0 1.8-1.4c-.2-1.4-2-1.6-4.2-1.7s-2.6-.4-3.1-.7c-.5-.3-.4-1.4-.1-1.9.2-.4 0-1.4-.1-1.8.2.4 1.6 1.3 3.1 2 1.6.7 1.7.5 1.7-.2s.4.5 1.3 1 1.4 2.1 1.6 1.4c.2-.7 0-1.7.1-2.4s-.4-1 1.9-.8c2.3.1 2.7 0 5-.7s2.3-2.9 2.8-3.6c.4-.7-.3-4-.3-4.6.1-.7 2.1-1 2.6-1.7s-1.4-3.8-1.9-4.5c-.5-.7.1-2.1-.3-3.5s-1.4-.5-2.7-.5-.1-.7.2-1.5c.3-.8-.5-2-2.5-2.9-1.9-.9-5.1-.4-7.2-.5s-4.2 1.7-6.9 2.2c-1.9.3-2.3 1.2-3 1.9V69.4c3.2-2 10.8-5.5 14-6.9 3.7-1.6 12-5 14.5-7.1 2.6-2.1 5.6-1.9 8.8-3.9 3.2-2 8.1-3.3 11.6-4.2 3.5-1 8.8-1 11.9-2.4 3-1.4 2-3.1-.7-4.1zM185.1 200.1c-18.1 7.8-25.4 9.7-62.6 16.5-11.5 2.1-17.6 3.5-20.8 4.6.1-1.9.3-4.3 1.1-7.2 1.7-6.2 6.5-18.5 7.5-21.1.3-.7.7-2 1.2-3.4 3.1-1.8 8.5-4.9 10.5-6.2 2.8-1.7 18.1-10.8 20.5-12.1 1.6-.8 3.6-2.3 5.4-3.5 1.1-.2 2.5-.3 4.5-.6 8.2-.9 12.3-2.3 15.4-3.5 3.1-1.3 8.3-4.8 11.7-7.1 3.5-2.3 8.9-3.4 10.7-3.6 1.9-.2 3.3.9 6.6-.5s3.6-2.8 5.8-3.5c2.1-.7 1.3-.4 5.1-.8s3-2.5 2.2-2c-.8.5-5.5.5-7.1.6-1.6.1-2.3 2-3.9 2.2-1.5.2-1.1 1.3-3.4 2-2.4.7-2.4.5-3.3-.8-1-1.3 4.3-1.9 6.8-2.8 2.5-.9 7.2-3 10.7-4.4 3.5-1.5 8.3-2.8 6.8-2.9-1.4-.2-4.9 1.1-11.5 3.5-6.7 2.3-19.4 4.1-24.8 5.3-5.4 1.2-18 6.1-31 9s-11.1 2.1-21.6 3.1c-2.8.3-5.6.4-8.3.5l.6-2.1c2.1-7.3 3.6-16.1 5.5-17.7 1.9-1.7 6.4-2.8 6.7-5.4.3-2.5-.4-2.7 1.1-4.5 1.5-1.8 18.5-8.9 23.9-13.7 1.4-.2 2.6-.4 3.2-.4 1.6-.1 7.7.7 10.9.7s9.8-1.8 12.6-1.3c2.7.4 5.2.3 6.2.1.9-.1 7.9-1.5 8.1-.5.2.9-10.5 7.7-13 9.2-2.5 1.5-4.5 2-2.7 2.9 1.8.9 5.7-2.2 7.2-4.4s5.5-3.6 8.6-5c3.1-1.4 10.3-4.5 12.2-4.9 2-.4 2.6-1 3.7 1s.5 1.4.1 2.5-1 .8-1.7 1.8c-.6 1-.6 3.2-.4 2.9.3-.3 2-1.7 3-1.5 1.1.1.5 1.5.2 1.7s-.2 0-2.1.9-1.4 1.4-1.4 2.2c.1.8-1.3 1.8-2 2.3-.7.5-.6 2.1-.3 2.7.2.6 1.5.2 2.5-.1 1-.3 1.3-.6 1.7-1 .4-.4 2.3-2.7 2.3-1.6s.4.9 1.2.5c.8-.4 1.6-1.2 1.7-1.5.1-.3-1.6-.5-2.2-.5s-1.1 0-.4-1c.6-1-.1-1.7 0-2.1 0-.4-.3-.3.7-.7 1.1-.4.3-.1.8-1.7.5-1.6 1.9-2.3 2.5-2.4.7-.1 1.1 1 2.2.8 1.1-.3 2.1-1.7 3.4-1.8 1.3-.1-.1 4.6-.5 6.1-.5 1.6-.5 2.6.5 2.7 1 0 2.8.6 3.1 1.1.3.5-1.4 2.2-2.2 5-.8 2.9-1.6 4.1-1.9 6.7-.3 2.5 2.3 1.3 3.5.9 1.2-.3 1.3-1.3 1.5-1.9.2-.6-.2-.4-1-.3-.8 0-.5-1.2.2-1.5.7-.2 1.6-.8 1.9-1.6.3-.8-.3-2.1-.3-3.6s-.5-1.2.2-2.5c.8-1.3 1.2-3.6 1.3-4.3.1-.7-.2-1.6.8-2.4 1-.8 1.3-1.7 2.1-1.9.8-.2.6 1.7 1.6 1.4 1-.3 3.4 2.2 5.5 2.2s3.1-.5 3.9-.6c.8 0 2.5.9 4 3.1 1.4 2.1 2 .6 2.2.3s-1-2.5 1.5-2.5c2.5-.1 5.6.8 6.6 1.4 1 .5 5.7 3.6 5.2.3-.5-3.3-.1-3 .4-3.1.5-.1.6 1 1.9.3 1.3-.7 2.2-.5 2.6-.3.4.2.2 1.8 2.3 1.4 2.1-.5 3.2-1.1 4-1.7.8-.6-.2-.8 1.1-2.5.2-.3.5-.5.8-.6v50.5c-.1 0-.2.1-.4.2-1.8 1-1.6 1.1-3.5 2.8-1.9 1.7-1.9 2.8 0 2 0 0 2.3-1.8 3.8-2.8v5.5c-.6.2-1.7.6-3.3 1.4-2.9 1.4-1.3-.1-5.4.7-4.1.8-2.8 1.1-5.3 2.1-2.5 1.1-30.2 8.2-37.6 13.1-7.3 4.9-35.8 8.1-29.7 5.8 6-3 5.9-8.4-12.2-.6zM80.2 91.8c1-.5-.1-1.3.1-1.5.2-.2.5.1 1.7.3 1.2.2 2.3 1.6.5 2.3-1.8.7-1.7 1.7-.7 1.9 1 .3 3.5 0 3.5 0-.3.3-.3.9.4.9s.3-.9.3-.9.4.2.6.4c.2.2.2.9 0 2s-2.5 2-1.7 2.9 4.3-.4 6.2-.4c1.9 0 1.8 1.5 1.8 2.2.1.7 2 .8 2.7.9.7.1.1.6-.1 1.3-.2.6 2 .2 1.1.6-.9.3-2.7 1.5-6.9 5.5s-5.6 6.9-4.8 7c.8.1 9-5.1 10.4-5.6 1.4-.5 3.3.3 4.9-.2 1.6-.4.5-1.1 1.8-1.5.9-.2 1.7 0 2 .2 1.3.7 3.8 2.7 4.4 7.8.8 6.9 2.1 7.7.2 11.3-1.9 3.6-4.7 8.9-6.4 15-1.4 5.3-4.3 13.1-5.9 18.5-2.1.4-4 .8-5.6 1.3-2.7.9-8.4-.2-10.6 0s-2.6 2-3.1 4.2c-.4 2.2.1 3.3-.2 5.2-.3 1.8-1.7 1.9-1.7 4.7 0 2.8 0 2.4-.4 3.8-.3 1.4 4.2 5.6 4.2 5.6s.9 1.3 1.7 1.2c.8-.1.7.9 2.1 1.8 1.3.8 1.1.2 2.8 0 .2 0 .9-.2 1.8-.5 0 .3-.1.5-.1.8-1.5 10.7-2.3 17.7-2.7 21.8-.2 2.6 0 5.6.1 8.1-.9-.5-1.8-1.1-2.7-1.6-5.4-2.8-5.5-10.7-9.4-12-1-.3-1.8-.1-2.4.4V91.9c1.5-.4 4.9-1.3 6-1.5 1.2-.2 2.6-.3 2.8-.3-.1 0-.2.1-.4.6-.2.7.7 1.6 1.7 1.1zm31.3 97.4c1.1-3.5 2.5-7.8 2.9-7.9l.2-.2c4.2-1.3 9.1-2.8 12.6-4.2 2.9-1.2 6.4-2.9 9.6-4.5-1.5 1.4-3.3 3-4.8 3.6-2.1.7-15.1 9.5-20.5 13.2zm25.8-62.3s2.4-3.9 2.7-6.2c4.2-.8 9.7-1.6 10.4-1.7.4-.1 2.1-.4 3.9-.7-1.2.6-2.7 1.3-4.2 2-8.1 3.3-12.8 6.6-12.8 6.6zM278 90.1c.1.2.3.2.5.3v1c-.5.1-.8.3-.8.9s.4.7.6 1.2c.2.5.1 1.2.1 1.8 0 .6-.1.7 0 1 0 .1.1.2.2.3v7.1c-.2-.2-.4-.5-.6-.8-.5-.6.3-.2-.6-1.8-.9-1.6-2.4-2.5-3.2-2.9-.8-.4-1.1-.9-1.4-1.3-.3-.5.3-2.3.4-2.9.1-.7-.1-.5.5-1.9s2.3-3.1 2.6-3.4c.3-.3.5-.2 1.1-.5.6-.3.4-1 .4-1.2 0-.1.4-.4.8-.6V89c-.1.1-.2.1-.4.2-.9.4-.4.3-.2.9zm.5-29.3c-1.3.1-2.9-.2-3-.6-.1-.4 1.7-1.5 2.2-1.9.2-.1.5-.5.8-.8v3.3zm-87-5h3c-.3.2-.5.5-.6.6-.6.9-1.2.9-1.8.6-.4-.2-.5-.6-.6-1.2zm-12.3 0c1 1.5 2.6 3.4 1.5 3.8-1.2.4-3.7-.7-8.5-.4-4.8.3-3.4 2.1-2 2.5 1.4.5 6.6 0 6.6 0-.5.1-2.1 2.6-2.1 2.6s1.5 0-5.6.9-31.2 5.1-36.7 5.4c-5.5.3-3.9 1-11.2.1-7.3-.9-26.1 1.7-27.7 1.8-1.6.1-1.1.8-2.5.8s-1.7.6-3.9 1.3c-2.2.7-8.8 2.1-14.4 2.9-.9.1-1.8.3-2.6.5V61.8c.1 0 .2.1.3.1 3.4 1.3 5.2 2.9 7.6 5.5 2.4 2.6 5.8 6.5 5.8 6.5s-8-11.6-9.7-12.9c-1-.8-2.5-1.9-3.9-2.6v-2.6h109zM70.1 80.3c1.4-.1 2.2-.5 2.6-.6.5-.2 1.8-.3 3.1-.5 1.3-.1 2.7.5 3.3.4.6-.1.8-.4 1.7-.4.8 0 .6.4.5 1.3-1.3.2-5.5 1-11.2 2.1v-2.3zm11.2.1c0 .1 0 .2-.1.3-.2 1 .1 1.4-.3 1.9s-1.7.8-3.3 1.9C76 85.6 73 86.2 71 87c-.3.1-.6.3-.9.4v-3.8c5.6-1.5 9.9-2.8 11.2-3.2zM70.1 215.5c1.5.8 3.4 1.9 4.8 4.5 2.3 4.3.8 7.4-1.3 12.4s-3.2 6.1-1 8.9c2.2 2.8 1.7 6.2 2.6 10.7.8 4.5 1.7 6.9 4 10.1.6.8 1 1.5 1.4 2.1H70.1v-48.7zm79.4 48.7c.3 0 .7-.1 1-.1 10.3-1.6 25.3-4.1 29.4-4.6 4.1-.5 29.4.6 45.7-.4 16.3-1.1 29-3.1 40-5.3 7.8-1.5 11.5-2.3 13-2.5v1.9c-1.8.5-3.8 1.1-4.8 1.4-2.1.6-2.8.5-4.2 1.1-1.5.6-9.9 2.1-9.6 2.4.4.3 6.1-.4 6.9-.8.8-.4 2.9-.1 4.5-.8 1.6-.7 2.1-.8 3.6-1.4.7-.2 2.1-.8 3.5-1.4v10.6h-129z"/><path d="M316.5 65.1c-1.5.9-1.3.6-4.3 1.8-3 1.2-1.5.4-4.6 1.7-2.6 1.1-3.1 1.1-5.7 1.9-.5.2-9.6 2.1-9.3 2.6.5.8 6.8-.6 8.8-1.2.7-.2 4.3-.9 5.7-1.4 3-1.1 3.2-.8 6.4-1.7 3.2-.9 4-1 6-1.8 1.7-.7 4.4-1.6 2.5-3.3-1.6-1.5-4 .4-5.5 1.4zm-11.8-22.2c2.1-1.2 5.9-2.6 7.9-3.1s3.3-4.1 3.3-4.1-.4-3.3 3.9-4.3c4.4-1 3.6-3 2.7-4.4-1-1.3-2.9.5-4.6 2.4-1.7 1.9-3.9 1.7-5.7 2.1-1.8.4-4 2-4.7 2.8-.7.8-2 1.3-2.9 2.4-.9 1.1 3.7 1.3.4 3.9-3.3 2.6-3 3.5-3 3.5.6.6.6-.1 2.7-1.2zm-37.9-14.2c-1.1 2.9-3.6 11-3.6 11s4.5-10.9 5.1-11.4c.5-.6-.4-2.5-1.5.4zm12.2 4.7c1.8-.8 2-1.3 3-2.3 1-1 .4-1.6 1.2-3.4.8-1.8 1.2-.7 3.2-1.2s1.1-.9 1.3-1.7c.2-.8-.9-1.4-1.8-1.1-.8.3-1.9 1.1-3.9 1.6s-1.8 1.1-3.6 2.2-1.4 1.5-2.9 2.6-1.1 4.5-1.1 4.5c.7 0 2.8-.4 4.6-1.2zm-132.9 30c1.4 1.2 4.1.1 7.3.6s7.5.8 7.5.8c1.5-.2-.1-.8-1.7-2-1.6-1.2-2.4-.8-3.1-.4s-4.4-1.6-6.6-2.1c-2.2-.6-3.6.1-5.4.4-1.9.4.6 1.5 2 2.7zm-56.3 37.1s-1.4.7-2.6 1c-1.2.3-2.2.5-2.9 1-.7.5.2 1.7.2 1.7 2.5-.2 5.3-3.7 5.3-3.7zm202.3-24.3c-.8-.4-1.8-.8-3.1-1.4s-1.1-.3-1.7-.3c-.6 0-.9 1-.9 1s.6-.2.8-.2c.2 0 2 .9 3.1 1.8s1.6 1.3 2.1 1.3c.4 0 1.7-.4 1.6-1.5 0-1.1-1.1-.3-1.9-.7z"/></svg>