<svg xmlns="http://www.w3.org/2000/svg" viewBox="0 0 547.4 296.2" style="enable-background:new 0 0 547.4 296.2" xml:space="preserve"><path style="fill:#fff" d="M60.8 39.7h242.3V282H60.8z"/><path d="M212.4 196.6c.9-.5 2.8-3.2 5.8-4.1 3-.9 14.6-3.9 18.4-5.3 3.7-1.4 11.2-5.1 15.5-5.4 4.3-.3 1.1-4.3-1.2-4-2.3.3-4.7 2.1-11.9 6s-10.4 3.7-13.9 4.7c-3.6 1-11.8 4.8-14.3 6-2.6 1.2 1.6 2.1 1.6 2.1z"/><path d="M352.7 40.8c-2.2-.8-8.6 2.1-11 3-2.3.9-14.9 6.1-19.1 7.6s-5.9 3.9-10.7 5.7c-4.8 1.9-9.3 4.7-11.1 5.9-1.8 1.2-8.1 4.2-8.1 4.2s-.1-.1-.3-.2V53.5c.3-.1.6-.3 1-.4 1.4-.4.4-1.9-1-2V50h-1.9c-.2-1.8.5-5 1.2-6.1 1-1.8.1-1.5-1.4-2.8s-2.4.8-3.7.5c-1.4-.4-3.2 0-3.8.4-.6.4-.9 1.4-2.2 2.2-1.3.8-4.2.4-5.4-.2-1.2-.6-4.6 1.8-4.9 1.2-.3-.6.3-1.1 0-1.7s-1.4 0-3 .9-4.1.6-4.1.6-1-1-1.3-1.5c-.3-.5.5-1.4.9-1.8.3-.3 1.9-1.6 1.4-1.6s-.8-1.7-1.9-2.7c-1.1-1-.5-3.8-.4-4.9.1-1.1 1.6-2.5 2.3-3.4s1.5-.9 3.9-2c2.3-1.1 3.2-3.7.7-4.5-2.5-.8-3.1.6-3.5 2-.4 1.4-2.1 3.3-3.8 3.9-1.7.6-2.5 2-3.6 3.7-1 1.7.1 1.7.4 5 .3 3.3-.7 3.4-1.5 3.8-.8.4-2.6.1-4.2.5s-2.1.1-2.8-.3c-.7-.5-.7-2.3-3.2-2.5-2.5-.2-3.1-1.6-3.9-3s-2.4-2.2-4.4-.8c-2 1.4-2.5 1.1-3 .9-.5-.2-.4-1.8-2.9-2.8-2.5-1-3.8-1.5-5-.7-1.2.8-1.3 1.3-3 0s-2.5-1-4.2-.2c-1.7.8-1.1 4.3-1.3 6.1-.2 1.8-2.1.9-2.4.1-.3-.8-1-1.5-1.7-1.4-.7.1-1.3-2.3-2.2-3.8-.9-1.4-3-1.5-3.3-1-.3.5 0 1.7.4 2.7.4 1 1.4 4.1.4 6.3s-1.7.4-2.9 1.8.8 5.1.8 5.1.2 1 .3 2.1H190c-1.1-1.9-.8-5.2-1.5-7.3-.9-2.5-.5-3.4-1.3-6.1-.8-2.7-3.5-6.8-4.6-7.7-1.1-.9-3.9-.5-5.4-1.1-1.5-.5-1.6-2.9-3.1-5.1-1.6-2.2-3.5-2.3-3.9-1.9-.4.5 0 1.6 1.5 2.5 1.4.9 2.1 3.2 4.2 5.5s2.9 3.4 3.7 2.7c.8-.7 1.5.2 2.2 1.3.7 1.1 1.3 4.3 2.6 5.5 1.2 1.3.9 2.5 1 3.8.1 1.3-.1 5-.4 6.6-.1.3 0 .6 0 1H72.6v33.5c-15.8 3-37.3 7.1-42 8.4-7.7 2.2-17.2 4.5-16.8 7 .4 2.5 7.1 1.1 8.3.8 1.2-.3 5.5-2.7 20.7-6.4 7.7-1.9 19.8-5.2 29.8-8.1v5.8l-.1.1c-.1.2 0 .3.1.4v9.4c-2.6.5-5.5 1.1-6.6 1.4-2.4.6-6.3 4.3-6 5.4.3 1.1 2.4 3 5.1-.3 1.4-1.8 4.7-3.7 7.6-5.2v167.4h219.9V118.6c.3 0 .7 0 1 .2.4.2 1 1.2 1.6 2.4.6 1.2 2.1 2 2.5 1.9.4-.2.6-.7 1.6.7s.7 2.9 1 4.6c.3 1.7 1.5.9 1.9.1.4-.7-.1-1.3-.6-2-.5-.6-1.6-3.6-.9-3.8.7-.2.7-.3 0-1s-2-1.6-2.4-2.3c-.4-.7-.5-.9.5-1.2.9-.3 2.3 1.3 4.1 1.3s2 0 1.8-1.4c-.2-1.4-2-1.6-4.2-1.7s-2.6-.4-3.1-.7c-.5-.3-.4-1.4-.1-1.9.2-.4 0-1.4-.1-1.8.2.4 1.6 1.3 3.1 2 1.6.7 1.7.5 1.7-.2s.4.5 1.3 1 1.4 2.1 1.6 1.4c.2-.7 0-1.7.1-2.4s-.4-1 1.9-.8c2.3.1 2.7 0 5-.7s2.3-2.9 2.8-3.6c.4-.7-.3-4-.3-4.6.1-.7 2.1-1 2.6-1.7s-1.4-3.8-1.9-4.5c-.5-.7.1-2.1-.3-3.5s-1.4-.5-2.7-.5-.1-.7.2-1.5c.3-.8-.5-2-2.5-2.9-1.9-.9-5.1-.4-7.2-.5s-4.2 1.7-6.9 2.2c-1.9.3-2.3 1.2-3 1.9V69.4c3.2-2 10.8-5.5 14-6.9 3.7-1.6 12-5 14.5-7.1 2.6-2.1 5.6-1.9 8.8-3.9 3.2-2 8.1-3.3 11.6-4.2 3.5-1 8.8-1 11.9-2.4 2.9-1.4 2-3.1-.8-4.1zM193.2 200.1c-18.1 7.8-25.4 9.7-62.6 16.5-11.5 2.1-17.6 3.5-20.8 4.6.1-1.9.3-4.3 1.1-7.2 1.7-6.2 6.5-18.5 7.5-21.1.3-.7.7-2 1.2-3.4 3.1-1.8 8.5-4.9 10.5-6.2 2.8-1.7 18.1-10.8 20.5-12.1 1.6-.8 3.6-2.3 5.4-3.5 1.1-.2 2.5-.3 4.5-.6 8.2-.9 12.3-2.3 15.4-3.5 3.1-1.3 8.3-4.8 11.7-7.1 3.5-2.3 8.9-3.4 10.7-3.6 1.9-.2 3.3.9 6.6-.5s3.6-2.8 5.8-3.5c2.1-.7 1.3-.4 5.1-.8s3-2.5 2.2-2c-.8.5-5.5.5-7.1.6-1.6.1-2.3 2-3.9 2.2-1.5.2-1.1 1.3-3.4 2-2.4.7-2.4.5-3.3-.8-1-1.3 4.3-1.9 6.8-2.8 2.5-.9 7.2-3 10.7-4.4 3.5-1.5 8.3-2.8 6.8-2.9-1.4-.2-4.9 1.1-11.5 3.5-6.7 2.3-19.4 4.1-24.8 5.3-5.4 1.2-18 6.1-31 9s-11.1 2.1-21.6 3.1c-2.8.3-5.6.4-8.3.5l.6-2.1c2.1-7.3 3.6-16.1 5.5-17.7 1.9-1.7 6.4-2.8 6.7-5.4.3-2.5-.4-2.7 1.1-4.5 1.5-1.8 18.5-8.9 23.9-13.7 1.4-.2 2.6-.4 3.2-.4 1.6-.1 7.7.7 10.9.7s9.8-1.8 12.6-1.3c2.7.4 5.2.3 6.2.1.9-.1 7.9-1.5 8.1-.5.2.9-10.5 7.7-13 9.2-2.5 1.5-4.5 2-2.7 2.9 1.8.9 5.7-2.2 7.2-4.4s5.5-3.6 8.6-5c3.1-1.4 10.3-4.5 12.2-4.9 2-.4 2.6-1 3.7 1s.5 1.4.1 2.5-1 .8-1.7 1.8c-.6 1-.6 3.2-.4 2.9.3-.3 2-1.7 3-1.5 1.1.1.5 1.5.2 1.7s-.2 0-2.1.9-1.4 1.4-1.4 2.2c.1.8-1.3 1.8-2 2.3-.7.5-.6 2.1-.3 2.7.2.6 1.5.2 2.5-.1 1-.3 1.3-.6 1.7-1 .4-.4 2.3-2.7 2.3-1.6s.4.9 1.2.5c.8-.4 1.6-1.2 1.7-1.5.1-.3-1.6-.5-2.2-.5s-1.1 0-.4-1c.6-1-.1-1.7 0-2.1 0-.4-.3-.3.7-.7 1.1-.4.3-.1.8-1.7.5-1.6 1.9-2.3 2.5-2.4.7-.1 1.1 1 2.2.8 1.1-.3 2.1-1.7 3.4-1.8 1.3-.1-.1 4.6-.5 6.1-.5 1.6-.5 2.6.5 2.7 1 0 2.8.6 3.1 1.1.3.5-1.4 2.2-2.2 5-.8 2.9-1.6 4.1-1.9 6.7-.3 2.5 2.3 1.3 3.5.9 1.2-.3 1.3-1.3 1.5-1.9.2-.6-.2-.4-1-.3-.8 0-.5-1.2.2-1.5.7-.2 1.6-.8 1.9-1.6.3-.8-.3-2.1-.3-3.6s-.5-1.2.2-2.5c.8-1.3 1.2-3.6 1.3-4.3.1-.7-.2-1.6.8-2.4 1-.8 1.3-1.7 2.1-1.9.8-.2.6 1.7 1.6 1.4 1-.3 3.4 2.2 5.5 2.2s3.1-.5 3.9-.6c.8 0 2.5.9 4 3.1 1.4 2.1 2 .6 2.2.3s-1-2.5 1.5-2.5c2.5-.1 5.6.8 6.6 1.4 1 .5 5.7 3.6 5.2.3-.5-3.3-.1-3 .4-3.1.5-.1.6 1 1.9.3 1.3-.7 2.2-.5 2.6-.3.4.2.2 1.8 2.3 1.4 2.1-.5 3.2-1.1 4-1.7.8-.6-.2-.8 1.1-2.5.2-.3.5-.5.8-.6v50.5c-.1 0-.2.1-.4.2-1.8 1-1.6 1.1-3.5 2.8-1.9 1.7-1.9 2.8 0 2 0 0 2.3-1.8 3.8-2.8v5.5c-.6.2-1.7.6-3.3 1.4-2.9 1.4-1.3-.1-5.4.7-4.1.8-2.8 1.1-5.3 2.1-2.5 1.1-30.2 8.2-37.6 13.1-7.3 4.9-35.8 8.1-29.7 5.8 6.1-3 6-8.4-12.2-.6zM88.4 91.8c1-.5-.1-1.3.1-1.5.2-.2.5.1 1.7.3 1.2.2 2.3 1.6.5 2.3-1.8.7-1.7 1.7-.7 1.9 1 .3 3.5 0 3.5 0-.3.3-.3.9.4.9s.3-.9.3-.9.4.2.6.4c.2.2.2.9 0 2s-2.5 2-1.7 2.9 4.3-.4 6.2-.4c1.9 0 1.8 1.5 1.8 2.2.1.7 2 .8 2.7.9.7.1.1.6-.1 1.3-.2.6 2 .2 1.1.6-.9.3-2.7 1.5-6.9 5.5s-5.6 6.9-4.8 7c.8.1 9-5.1 10.4-5.6 1.4-.5 3.3.3 4.9-.2 1.6-.4.5-1.1 1.8-1.5.9-.2 1.7 0 2 .2 1.3.7 3.8 2.7 4.4 7.8.8 6.9 2.1 7.7.2 11.3-1.9 3.6-4.7 8.9-6.4 15-1.4 5.3-4.3 13.1-5.9 18.5-2.1.4-4 .8-5.6 1.3-2.7.9-8.4-.2-10.6 0s-2.6 2-3.1 4.2c-.4 2.2.1 3.3-.2 5.2-.3 1.8-1.7 1.9-1.7 4.7 0 2.8 0 2.4-.4 3.8-.3 1.4 4.2 5.6 4.2 5.6s.9 1.3 1.7 1.2c.8-.1.7.9 2.1 1.8 1.3.8 1.1.2 2.8 0 .2 0 .9-.2 1.8-.5 0 .3-.1.5-.1.8-1.5 10.7-2.3 17.7-2.7 21.8-.2 2.6 0 5.6.1 8.1-.9-.5-1.8-1.1-2.7-1.6-5.4-2.8-5.5-10.7-9.4-12-1-.3-1.8-.1-2.4.4V91.9c1.5-.4 4.9-1.3 6-1.5 1.2-.2 2.6-.3 2.8-.3-.1 0-.2.1-.4.6-.2.7.7 1.6 1.7 1.1zm31.3 97.4c1.1-3.5 2.5-7.8 2.9-7.9l.2-.2c4.2-1.3 9.1-2.8 12.6-4.2 2.9-1.2 6.4-2.9 9.6-4.5-1.5 1.4-3.3 3-4.8 3.6-2.1.7-15.1 9.5-20.5 13.2zm25.8-62.3s2.4-3.9 2.7-6.2c4.2-.8 9.7-1.6 10.4-1.7.4-.1 2.1-.4 3.9-.7-1.2.6-2.7 1.3-4.2 2-8.1 3.3-12.8 6.6-12.8 6.6zm140.7-36.8c.1.2.3.2.5.3v1c-.5.1-.8.3-.8.9s.4.7.6 1.2c.2.5.1 1.2.1 1.8 0 .6-.1.7 0 1 0 .1.1.2.2.3v7.1c-.2-.2-.4-.5-.6-.8-.5-.6.3-.2-.6-1.8-.9-1.6-2.4-2.5-3.2-2.9-.8-.4-1.1-.9-1.4-1.3-.3-.5.3-2.3.4-2.9.1-.7-.1-.5.5-1.9s2.3-3.1 2.6-3.4c.3-.3.5-.2 1.1-.5.6-.3.4-1 .4-1.2 0-.1.4-.4.8-.6V89c-.1.1-.2.1-.4.2-.9.4-.4.3-.2.9zm.5-29.3c-1.3.1-2.9-.2-3-.6-.1-.4 1.7-1.5 2.2-1.9.2-.1.5-.5.8-.8v3.3zm-87-5h3c-.3.2-.5.5-.6.6-.6.9-1.2.9-1.8.6-.4-.2-.5-.6-.6-1.2zm-12.3 0c1 1.5 2.6 3.4 1.5 3.8-1.2.4-3.7-.7-8.5-.4-4.8.3-3.4 2.1-2 2.5 1.4.5 6.6 0 6.6 0-.5.1-2.1 2.6-2.1 2.6s1.5 0-5.6.9-31.2 5.1-36.7 5.4c-5.5.3-3.9 1-11.2.1-7.3-.9-26.1 1.7-27.7 1.8-1.6.1-1.1.8-2.5.8s-1.7.6-3.9 1.3c-2.2.7-8.8 2.1-14.4 2.9-.9.1-1.8.3-2.6.5V61.8c.1 0 .2.1.3.1 3.4 1.3 5.2 2.9 7.6 5.5 2.4 2.6 5.8 6.5 5.8 6.5S84 62.3 82.3 61c-1-.8-2.5-1.9-3.9-2.6v-2.6h109zM78.3 80.3c1.4-.1 2.2-.5 2.6-.6.5-.2 1.8-.3 3.1-.5 1.3-.1 2.7.5 3.3.4.6-.1.8-.4 1.7-.4.8 0 .6.4.5 1.3-1.3.2-5.5 1-11.2 2.1v-2.3zm11.2.1c0 .1 0 .2-.1.3-.2 1 .1 1.4-.3 1.9s-1.7.8-3.3 1.9c-1.6 1.1-4.6 1.7-6.6 2.5-.3.1-.6.3-.9.4v-3.8c5.6-1.5 9.9-2.8 11.2-3.2zM78.3 215.5c1.5.8 3.4 1.9 4.8 4.5 2.3 4.3.8 7.4-1.3 12.4s-3.2 6.1-1 8.9c2.2 2.8 1.7 6.2 2.6 10.7.8 4.5 1.7 6.9 4 10.1.6.8 1 1.5 1.4 2.1H78.3v-48.7zm79.3 48.7c.3 0 .7-.1 1-.1 10.3-1.6 25.3-4.1 29.4-4.6 4.1-.5 29.4.6 45.7-.4 16.3-1.1 29-3.1 40-5.3 7.8-1.5 11.5-2.3 13-2.5v1.9c-1.8.5-3.8 1.1-4.8 1.4-2.1.6-2.8.5-4.2 1.1-1.5.6-9.9 2.1-9.6 2.4.4.3 6.1-.4 6.9-.8.8-.4 2.9-.1 4.5-.8 1.6-.7 2.1-.8 3.6-1.4.7-.2 2.1-.8 3.5-1.4v10.6h-129z"/><path d="M324.6 65.1c-1.5.9-1.3.6-4.3 1.8-3 1.2-1.5.4-4.6 1.7-2.6 1.1-3.1 1.1-5.7 1.9-.5.2-9.6 2.1-9.3 2.6.5.8 6.8-.6 8.8-1.2.7-.2 4.3-.9 5.7-1.4 3-1.1 3.2-.8 6.4-1.7 3.2-.9 4-1 6-1.8 1.7-.7 4.4-1.6 2.5-3.3-1.5-1.5-3.9.4-5.5 1.4zm-11.7-22.2c2.1-1.2 5.9-2.6 7.9-3.1s3.3-4.1 3.3-4.1-.4-3.3 3.9-4.3c4.4-1 3.6-3 2.7-4.4-1-1.3-2.9.5-4.6 2.4-1.7 1.9-3.9 1.7-5.7 2.1-1.8.4-4 2-4.7 2.8-.7.8-2 1.3-2.9 2.4-.9 1.1 3.7 1.3.4 3.9-3.3 2.6-3 3.5-3 3.5.6.6.6-.1 2.7-1.2zm-38-14.2c-1.1 2.9-3.6 11-3.6 11s4.5-10.9 5.1-11.4c.6-.6-.4-2.5-1.5.4zm12.3 4.7c1.8-.8 2-1.3 3-2.3 1-1 .4-1.6 1.2-3.4.8-1.8 1.2-.7 3.2-1.2s1.1-.9 1.3-1.7c.2-.8-.9-1.4-1.8-1.1-.8.3-1.9 1.1-3.9 1.6s-1.8 1.1-3.6 2.2-1.4 1.5-2.9 2.6-1.1 4.5-1.1 4.5c.7 0 2.8-.4 4.6-1.2zm-132.9 30c1.4 1.2 4.1.1 7.3.6s7.5.8 7.5.8c1.5-.2-.1-.8-1.7-2-1.6-1.2-2.4-.8-3.1-.4s-4.4-1.6-6.6-2.1c-2.2-.6-3.6.1-5.4.4-1.9.4.6 1.5 2 2.7zM98 100.5s-1.4.7-2.6 1c-1.2.3-2.2.5-2.9 1-.7.5.2 1.7.2 1.7 2.4-.2 5.3-3.7 5.3-3.7zm202.3-24.3c-.8-.4-1.8-.8-3.1-1.4s-1.1-.3-1.7-.3c-.6 0-.9 1-.9 1s.6-.2.8-.2c.2 0 2 .9 3.1 1.8s1.6 1.3 2.1 1.3c.4 0 1.7-.4 1.6-1.5 0-1.1-1.1-.3-1.9-.7zm40.8 126.7c.9-1.8 1.6-3.8 2.2-5.8.6-2 .8-4.2.8-6.6v-1.4c0-.4-.1-.8-.2-1.3-.1-.4-.2-.8-.2-1.3s.1-.9.3-1.3c-.4-.8-.8-1.4-1.2-1.8.1-.4 0-.7-.1-.9-.1-.2-.2-.5-.1-.9-.4-.4-.8-.9-1.1-1.4l-.9-1.5c-.3-.5-.7-1-1-1.5-.4-.5-.8-.9-1.2-1.3.1-.3 0-.6-.2-.9-.6-.3-1.3-.6-2-.9-.7-.3-1.1-.9-1.2-1.8-.4-.3-.9-.5-1.5-.6-.6-.1-1-.2-1.4-.5-.2-.1-.3-.3-.3-.5s-.1-.3-.3-.4c-.2-.1-.5-.2-.9-.3-.4 0-.7-.1-.9-.2-.3-.1-.5-.3-.7-.5-.2-.2-.4-.3-.7-.4-.3-.3-.7-.4-1.1-.4-.4 0-.8-.1-1.2-.1-.4 0-.8-.1-1.2-.2-.4-.1-.7-.3-1.1-.7 0-.2-.1-.3-.2-.3-.3.3-.7.5-1.2.6-.5.1-.9.1-1.4.1-.6 0-1.2 0-1.8-.1-.6-.1-1.2-.2-1.7-.3-.5.1-.9.3-1.2.6-.4.3-.8.5-1.2.8-.1-.3-.2-.4-.4-.4s-.3.1-.5.2c-.1.1-.3.2-.4.2-.2 0-.2-.1-.3-.3 0-.2-.1-.3-.1-.4-.2 0-.3.1-.4.2-.1.1-.2.3-.2.4-.1.1-.2.3-.3.4-.1.1-.3.2-.5.2-1.8 0-3.4.3-4.8.8-1.4.6-2.8 1.2-4.4 2-.2 0-.4-.1-.7-.1h-.7c-.8 0-1.5.2-2.1.5-.6.3-1.2.8-1.7 1.4-1.3.3-2.6.8-3.8 1.4-1.2.6-2.4 1.4-3.5 2.4h-.2c-.2 0-.3 0-.5-.1-.1-.1-.3-.1-.5-.1h-.3c-.6.8-1.1 1.6-1.6 2.2-.5.6-.7 1.5-.7 2.7v.5c0 .2 0 .3.1.5.3.5.7 1 1.1 1.5.4.5.8.8 1.4 1 .6-.3 1.2-.5 1.9-.8.7-.3 1.3-.6 2-.9.6-.3 1.3-.7 1.8-1.1.6-.4 1.1-.9 1.6-1.5.3 0 .5 0 .7-.1.2-.1.4-.2.5-.4.2-.1.3-.3.5-.4.2-.1.4-.2.6-.2h.2c.1 2.5.3 4.9.5 7.4.3 2.4.4 4.9.4 7.4 0 .7 0 1.4-.1 2.2 0 .7-.1 1.5-.3 2.2.2.7.3 1.4.3 1.9 0 .2 0 .5-.1.7 0 .3-.2.5-.5.5.2.3.3.5.5.8.1.3.2.6.2.9 0 .4 0 .8-.1 1.2l-.3 1.2c-.1 1-.2 2-.2 3.1v3.3c0 1.1 0 2.2-.1 3.3-.1 1.1-.2 2.1-.5 3l.2.6c.1.2.1.4.2.7-.3.8-.4 1.7-.5 2.6-.1.9-.1 1.8-.1 2.6 0 .3 0 .7.1 1.1 0 .4 0 .8-.1 1.1 0 .3-.1.5-.2.7-.1.2-.2.4-.2.6.3.3.5.6.5 1 0 .3 0 .7-.1 1-.1.3-.1.6-.1 1 0 1 .2 2 .5 3s.5 1.9.5 3c0 .5-.1 1-.2 1.4-.1.5-.2 1-.2 1.5 0 .7.2 1.4.6 2 .4.6.7 1.2 1 1.8.2 0 .4-.1.6-.1.5 0 .9.1 1.2.4.3.3.6.5 1 .5.2 0 .4.1.6 0h.7c.5 0 1 .1 1.6.2.5.1 1 .2 1.6.3.5-.2.8-.5 1.1-.9.3-.4.6-.8.8-1.2.3-.4.5-.8.8-1.2.3-.4.6-.7 1-1-.1-.3 0-.5.1-.7.2-.2.3-.4.3-.6 3-2.1 5.8-4.4 8.4-7 2.5-2.6 4.8-5.5 6.9-8.8h.6c.4-.9.9-1.8 1.4-2.6.5-.8 1.1-1.6 1.7-2.4.6-.8 1.1-1.6 1.7-2.4.5-.8 1-1.7 1.3-2.6.2 0 .4-.1.5-.2.1-.1.2-.3.2-.5.1-.2.1-.3.2-.5.1-.1.3-.2.5-.2.9-2 1.9-3.9 2.9-5.7 1.2-1.6 2.2-3.4 3-5.3zm-3-8.8c-.2.8-.3 1.5-.6 2.2-.2.7-.5 1.4-.7 2.1-.2.7-.4 1.5-.5 2.4-.9 1.3-1.7 2.7-2.4 4.1-.7 1.4-1.5 2.7-2.3 4.1-.3.5-.6.9-.9 1.3l-.9 1.2c-.1.2-.3.3-.4.5-.2.2-.3.3-.4.5-.2.2-.3.5-.4.7-.1.3-.2.5-.3.7-.3.6-.6 1.2-1 1.8s-.7 1.1-1 1.7c-1.2 1.9-2.5 3.7-3.9 5.3-1.4 1.7-2.8 3.3-4.3 5l-2.5 3c-.2.2-.3.4-.5.6-.1.2-.3.4-.5.5-.2.2-.5.4-1.1.8-.5.4-.9.6-1.2.8-1.1.8-2.1 1.7-3.1 2.5s-2.2 1.5-3.4 2c-.5-.2-.9-.6-1.2-1.2-.3-.6-.4-1.2-.4-1.8 0-.4.1-.7.2-1-.2-1.4-.3-2.8-.3-4.1-.1-1.4-.1-2.7-.1-4.1 0-1.5.1-3 .2-4.5s.3-3 .5-4.5v-1c0-.4 0-.8-.1-1.2 0-.4-.1-.8-.1-1.2 0-.6.1-1.1.3-1.6.2-.5.3-1 .4-1.6 0-.4.1-.8.1-1.3v-1.2c0-1.5-.1-2.9-.2-4.3s-.2-2.9-.2-4.3c0-.6 0-1.3.1-1.9 0-.6.1-1.3.2-1.9-.2-.5-.4-1-.4-1.6 0-.6-.1-1.1-.1-1.7v-1.8c0-.6-.1-1.1-.3-1.6.1-.4.2-.8.2-1.2 0-.4.1-.8.1-1.2 0-1.1-.1-2.2-.3-3.2-.2-1.1-.3-2.1-.3-3.2v-1.2c.2 0 .4 0 .5-.1.1-.1.1-.2.1-.3 0-.1 0-.3.1-.4 0-.1.1-.2.2-.3.2-.2.5-.3.8-.3.2 0 .4 0 .6.1.2 0 .4.1.7.2.7-.5 1.5-1 2.3-1.2.9-.3 1.8-.5 2.7-.7.9-.2 1.8-.4 2.7-.7.9-.3 1.7-.6 2.5-1.1.3.3.7.4 1 .4.3 0 .6-.1 1-.2.3-.1.7-.2 1-.2h1.3c1.4 0 2.8.2 4.2.7 1.4.5 2.7 1 4.1 1.4.5.8 1.2 1.3 2 1.8.8.4 1.6.8 2.3 1.1.2 1 .6 1.7 1.4 1.8.3.3.6.6.7 1 .1.4.4.6.9.6.3 1.1.7 2.3 1.1 3.4.4 1.2.6 2.3.6 3.6v1.1c0 .4-.1.6-.2.8-.1.1-.3.3-.5.6.1.9.1 1.8-.1 2.5z"/><path d="M383.1 232.8c.8-1 1.6-1.8 2.6-2.4.4-1.4.9-2.7 1.6-3.8.7-1.1 1.4-2.4 2-3.6.1-.9.2-1.7.4-2.5s.4-1.6.6-2.5c.2-.8.4-1.6.6-2.5.2-.8.3-1.7.4-2.5.1-1.7.1-3.4-.1-5.1-.2-1.7-.2-3.4-.2-5.2.2-.2.4-.5.6-.9.2-.3.4-.7.6-.9-.1-.1-.2-.1-.3-.2-.1-.1-.2-.2-.2-.4 0-.3.2-.7.5-1.1.3-.4.5-.9.6-1.5 0-.2 0-.4-.1-.8 0-.1.1-.2.1-.2h.4c-.1-.5-.1-.9-.2-1.4-.1-.5-.1-.9-.1-1.4 0-.2 0-.3.1-.4 0-.1 0-.3.1-.4-.4-.7-.7-1.4-.9-2.3-.2-.8-.4-1.7-.6-2.5-.2-.8-.4-1.7-.6-2.4-.2-.8-.5-1.4-.9-2h-.6c-.3 0-.6-.1-.8-.4-.2-.2-.4-.5-.6-.7-.2-.3-.4-.5-.6-.7-.2-.2-.5-.3-.8-.4-.5 0-.9.1-1.1.5-.2.3-.5.7-.9 1 .1.7.2 1.3.2 2 .1.7.1 1.3 0 2 0 .7-.1 1.3-.3 1.8.3.2.5.6.6 1.1.1.5.2 1 .2 1.6l.1 1.7c0 .6.1 1 .3 1.5-.1 2.9-.2 5.8-.2 8.7 0 2.9 0 5.8-.2 8.7l-.1 1.9c0 .6-.1 1.2-.2 1.8-.4.6-.7 1.3-.8 2-.2.8-.4 1.5-.6 2.3-.2.7-.5 1.4-.9 2-.4.6-.8 1.1-1.5 1.4-.4 1.5-1.1 2.8-1.9 3.9-.9 1.1-2 1.6-3.5 1.5h-.7c-.2-.7-.5-1.4-1-2-.4-.6-.9-1.2-1.3-1.8-.2-2-.3-4-.2-6 0-2 .1-4 .3-6 .1-1.3.2-2.6.3-4 .1-1.4.2-2.7.4-4.1-.2-.5-.5-.9-.9-1.1l.1-1.7c-.4-.2-.8-.4-1.1-.8-.3-.3-.6-.7-.9-1-.3-.3-.6-.7-.9-1-.3-.3-.7-.5-1.2-.5h-.1c-.3.2-.7.5-.9.9l-.8 1.2c.3.2.4.6.4 1.1-.3.6-.5 1.3-.6 2-.1.7-.2 1.4-.2 2.1-.1.7-.2 1.4-.3 2-.1.6-.4 1.2-.8 1.7.1.3.1.5.1.7v.7c-.1.9-.3 1.8-.6 2.5-.4.8-.6 1.6-.6 2.5v.2c-.2 0-.4.1-.5.3l-.3.6c-.1.2-.2.4-.3.5-.1.1-.2.2-.4.2l-.2-.1c.1.7 0 1.1-.2 1.4-.2.2-.4.6-.4 1v.4c-.5.3-.9.6-1.3 1.1-.4.4-.7.9-1.1 1.3-.4.5-.7.9-1.1 1.3-.4.4-.8.7-1.3.9 0 .2 0 .4-.2.6-.2.2-.4.5-.6.7l-.7.7c-.2.2-.4.4-.5.6l-.9-.1c-.3.5-.6.9-1 1.2-.4.3-.8.5-1.3.8-.5.2-.9.5-1.3.8-.4.3-.8.7-1.1 1.3-.2 0-.4.1-.6.1h-.6c-.4 0-.8-.1-1.2-.2-.4-.1-.8-.2-1.2-.2h-.6c-.3-.8-.5-1.5-.8-2.3-.2-.7-.5-1.5-.8-2.1.3-1 .5-2 .5-3 .1-1 .3-2 .7-2.9 0-.3-.1-.5-.1-.8 0-.3-.1-.5 0-.8 0-.6.2-1.2.5-1.9s.5-1.4.6-1.9c.4-1.7.8-3.5 1.2-5.2.4-1.7 1-3.4 1.8-5l.2-2.4c.6-1.3 1.1-2.7 1.5-4.2.4-1.5.7-3.1 1-4.8.3-1.7.5-3.3.7-4.9.2-1.6.3-3.2.4-4.6l.1-1.8c-.7-.8-1.5-1.6-2.3-2.2-.8-.7-1.6-1.3-2.5-1.9-.5.2-.9.5-1.2 1-.3.4-.6.9-.8 1.4.1 1 .1 2 0 2.9-.1 1.9-.4 3.8-.7 5.6-.3 1.8-.6 3.7-.7 5.6v1.5c-.5 1.4-.9 2.9-1.2 4.4-.4 1.5-.7 3-1 4.5l-.3 2.4c-.1.9-.3 1.6-.5 2.3-.1.4-.3.7-.5.9-.2.2-.4.4-.5.7-.1.3-.2.6-.2.9s-.1.6-.1.8c-.1 1.1-.3 2.2-.6 3.2-.4 1.8-.8 3.7-1.3 5.5-.5 1.8-.8 3.6-.9 5.5.3.1.5.3.6.7.1.3.2.7.1 1.1 0 .4 0 .8-.1 1.3l-.1 1.1c.3.6.5 1.2.7 1.9.1.7.3 1.3.5 2 .7.5 1.2 1 1.4 1.4.2.4.5.8.7 1.1.3.3.6.5 1.1.8.5.2 1.3.3 2.4.4.7 0 1.5.1 2.3 0h2.3c.7-.5 1.5-1 2.3-1.4.8-.5 1.6-.9 2.5-1.2.7-1.3 1.7-2.3 2.9-3.1.2-.1.4-.2.6-.2.2-.1.4-.1.5-.2.3-.2.7-.6 1.1-1.1.4-.5.7-1 1-1.3.9-1 1.7-2 2.5-3.1.8-1 1.8-1.9 2.8-2.7.4 1.6.8 3.1 1.3 4.6.5 1.5 1.1 2.8 1.8 4 .7 1.2 1.6 2.2 2.7 2.9 1.1.8 2.4 1.2 4 1.3h1.1c1.3-.9 2.6-1.7 4.1-2.2.8-1.7 1.6-2.7 2.3-3.6z"/><path d="M528.9 191.2c0-.4.1-.8.3-1.1-.4-.7-.8-1.2-1.2-1.6.1-.4 0-.6-.1-.8-.1-.2-.2-.4-.1-.8-.4-.4-.7-.8-1-1.2-.3-.4-.6-.9-.9-1.3-.3-.5-.6-.9-1-1.3-.3-.4-.7-.8-1.2-1.1.1-.3 0-.5-.2-.8-.6-.3-1.3-.5-1.9-.8-.7-.3-1.1-.8-1.2-1.6-.4-.3-.9-.5-1.4-.5s-1-.2-1.3-.5c-.2-.1-.3-.2-.3-.4s-.1-.3-.3-.4c-.2-.1-.5-.2-.8-.2-.4 0-.7-.1-.9-.2-.3-.1-.5-.2-.7-.4-.2-.2-.4-.3-.7-.4-.3-.2-.7-.3-1.1-.4-.4 0-.8-.1-1.2-.1-.4 0-.8-.1-1.1-.2-.4-.1-.7-.3-1-.6 0-.2-.1-.3-.2-.2-.3.3-.7.5-1.1.5s-.9.1-1.3.1c-.6 0-1.2 0-1.7-.1-.6-.1-1.1-.2-1.7-.3-.4.1-.8.3-1.2.5-.4.2-.7.5-1.1.7-.1-.3-.2-.4-.4-.4s-.3 0-.5.1c-.1.1-.3.1-.4.1-.1 0-.2-.1-.3-.2 0-.1-.1-.3-.1-.3-.2 0-.3.1-.4.2-.1.1-.1.2-.2.4-.1.1-.2.2-.2.4-.1.1-.2.2-.5.2-1.8 0-3.3.2-4.6.7-1.3.5-2.7 1.1-4.2 1.8-.2 0-.4-.1-.6-.1h-.6c-.8 0-1.4.1-2 .4-.6.3-1.1.7-1.7 1.3-1.3.3-2.5.7-3.7 1.2-1.2.5-2.3 1.2-3.4 2.1h-.2c-.2-.3-.3-.6-.4-.9-1.2-.9-2.4-1.8-3.8-2.4-1.3-.7-2.8-1.2-4.2-1.6s-3-.7-4.5-.9c-1.5-.2-3-.3-4.4-.3-.6 0-1.2 0-1.9.1-.6 0-1.2.1-1.9.2-.3-.2-.7-.4-1.1-.4-.4 0-.8.1-1.1.4-2.3 0-4.5.2-6.7.5-2.2.4-4.4.7-6.6 1.2-.2.2-.3.3-.3.5s-.2.3-.5.3c-.1 0-.3 0-.4-.1-.1-.1-.3-.1-.4-.1-.6 0-1.2.1-1.7.4-.5.3-1.1.4-1.7.4-.4 0-.6-.1-.8-.2-.1.4-.3.7-.7.9-.3.2-.7.3-1.1.4-.4.1-.8.2-1.1.4-.4.1-.7.4-.9.7 0 0-.1.1-.3.1-.1 0-.3 0-.4-.1-.1-.1-.3-.1-.5-.1-1.2.8-2.6 1.5-3.9 1.9-1.4.5-2.7 1.1-3.9 1.8-.4 0-.7 0-1 .1-.3.1-.6.3-.9.4-.3.2-.6.3-.9.4-.3.1-.6.2-1 .2-.2 0-.4 0-.5-.1-1 .7-2.1 1.2-3.2 1.7l-3.3 1.5v.1c-.3-.1-.7-.1-.9-.2-.7-.2-1.4-.6-2.3-1.4-.5.2-.9.6-1.1 1.1-.2.5-.6.9-1.1 1.1 0 0 0 .1-.1.1 0 .2.1.4.2.4.2.1.2.2.2.4v.2c-.6.7-1 1.5-1.3 2.5-.3.9-.6 1.8-.8 2.8-.2.9-.5 1.8-.8 2.7-.3.9-.8 1.6-1.4 2.2-.1.4-.2 1-.2 1.5-.1.6-.4.9-1 .9-.2 1.2-.4 2.3-.8 3.3s-.8 1.9-1.2 2.9c-.5.9-.9 1.8-1.4 2.7-.5.9-.9 1.9-1.2 3-.3-.1-.5 0-.5.2-.1.2-.2.3-.4.3 0 .5-.1.9-.2 1.3s-.4.6-.9.7c-.4 1.8-1.2 3.4-2.4 4.9v1.4c-.9.9-1.7 1.8-2.4 2.9-.7 1.1-1.4 2.1-2.1 3.2-.7 1.1-1.4 2.1-2.3 3-.8.9-1.8 1.7-2.9 2.3 0 .4.1.7.3.8.2.2.4.4.4.8-.5.2-.8.5-1.1.8-.2.4-.4.8-.6 1.3l-.3 1.5c-.1.5-.1 1-.1 1.4.5 1.4 1.3 2.1 2.5 2.1.6 0 1.2-.2 1.9-.5s1.2-.7 1.7-1.1c-.1-.6 0-1 .2-1.3.5-.2.8-.5 1.1-.9.3-.4.6-.8.9-1.3.3-.4.6-.9.9-1.3.3-.4.7-.7 1.1-1 0-.6.2-1.1.5-1.4.3-.3.5-.7.6-1.3.2 0 .4 0 .6-.1.1-.1.3-.2.3-.4.1-.2.2-.3.2-.5.1-.2.2-.3.4-.4.2 0 .5-.1.7-.2.8.2 1.6.3 2.4.3.6 0 1.1 0 1.7-.1.6 0 1.1-.1 1.7-.1h.6c.3 0 .4-.1.4-.3 0-.2.1-.3.3-.3.3.2.6.3.9.3.4 0 .8-.1 1.1-.4.3-.2.7-.5 1.1-.6.3.1.6.1.8.1h.9c1 0 2.1-.1 3.1-.3 1-.2 2-.5 3-.8.2.1.5.3.7.5.2.2.4.4.6.5.3-.7.8-1 1.6-1h.5c.5.5.9 1.2 1.3 1.9s.7 1.4 1.1 2.2c.3.7.7 1.4 1 2.1.4.7.8 1.2 1.3 1.7.4.4.7.5.8.4.2-.1.4-.1.7.1.2.1.4.2.5.3.1.1.2.3.3.4.1.1.2.2.4.3.1.1.4.1.7.1.2 0 .5 0 .8-.1.3 0 .5-.1.8-.1.2 0 .4 0 .6.1.2 0 .4.1.6.2.2-.1.3-.2.3-.5 0-.2.1-.3.3-.3h1.2c.5 0 1 0 1.5-.1.6-.1 1.1-.2 1.6-.4s1-.5 1.4-.9c.4-.4.7-.9.8-1.5-.3-.4-.6-.8-.8-1.2-.2-.4-.5-.8-.8-1.2-.2.1-.4.2-.8.2-.5 0-1-.1-1.4-.4-.4-.2-.9-.4-1.4-.4-.5 0-.9.2-1.3.5-.6-.4-1.2-.9-1.8-1.4-.6-.5-1-1.2-1.3-1.9.9-.4 1.8-.5 2.8-.5.3 0 .6 0 .7.1-.2-.3-.2-.5-.2-.7 0-.4.2-.8.5-1.1.3-.3.5-.7.5-1.3 0-.3-.1-.6-.2-.9-.2-.1-.5-.1-.7-.1h-1.9c-.5 0-1 0-1.6-.1-.5-.1-1-.2-1.5-.4-.4-.2-.8-.5-1-.9-.6-1.3-1-2.7-1.3-4.2-.3-1.5-.6-3-.9-4.3-.1-.5-.3-1.1-.4-1.6-.1-.5-.3-1.1-.5-1.5l-.4-1.1c-.2-.6-.3-1.3-.2-2.1.1-.8.1-1.5 0-2.1-.1-.8-.4-1.6-.7-2.4-.3-.8-.6-1.6-.7-2.4-.2-1.4-.5-2.8-.9-4.2-.4-1.4-.8-2.8-1.1-4.2 0-.1 0-.2-.1-.3.1-.1.3-.1.4-.2l1.2-.8c1.2-.2 2.2-.5 3-1 .9-.5 1.7-1.1 2.7-1.8h1c.3 0 .6-.1.8-.3.2-.1.3-.3.3-.5 0-.3.1-.5.3-.5l.9-.2c.2-.1.4-.2.6-.4.2-.2.4-.3.6-.4.4-.1.8-.2 1.1-.3.4-.1.7-.2 1.1-.4.8-.4 1.7-.7 2.5-1.1.8-.4 1.7-.6 2.7-.6h.4c.5-.5 1.1-.9 1.9-1.1l2.1-.6c.2.9.3 1.8.4 2.7.1.9.1 1.8.1 2.7 0 1.9-.1 3.8-.2 5.7s-.3 3.8-.5 5.7c-.1.9-.1 1.7-.1 2.6 0 .9 0 1.7-.1 2.6 0 .4-.1.9-.2 1.4-.1.5-.2 1-.2 1.4l-.7 6.2c-.2.1-.2.2-.2.5-.3.6-.7 1.1-1.1 1.5-.4.4-.7 1-.7 1.7 0 .8.2 1.4.5 1.8.3.4.6.9.9 1.5-.1 1.2-.2 2.4-.2 3.7 0 1.3-.1 2.6-.1 3.9-.1 1.3-.2 2.5-.4 3.8-.2 1.3-.4 2.5-.8 3.6-.3.7-.4 1.3-.5 1.9-.1.6-.1 1.3-.1 1.9 0 .5 0 1 .1 1.4 0 .5.1 1 .2 1.5.1.4.2.8.2 1.2 0 .2 0 .3-.1.5s-.1.3-.1.5c0 .1 0 .2.1.3.4.5.8 1 1.1 1.2.3.3.7.6 1.3 1.1.3 0 .5-.2.5-.5.1-.3.2-.6.3-.8.6.1 1.1.4 1.3.9.4-.3.7-.6 1.1-.8.4-.2.7-.4 1.1-.7.1-.4.1-.7.1-1.1v-2.2c0-.4 0-.8-.1-1.2.1-.3.1-.6.2-.9.1-.3.1-.6.2-1-.2-.4-.3-.9-.3-1.6v-1c0-.3 0-.6-.1-.9.3-.9.4-1.8.5-2.9.1-1 .1-2.1.2-3.1s.1-2.1.2-3c.1-1 .3-1.9.7-2.6l.9.3c.3.1.6.1 1 .1h.5c.1 0 .3 0 .4-.1.3.3.6.5.9.7.3.2.6.4.8.7 0-.2.2-.2.4-.2.1 0 .2 0 .4.1h.4c.7.4 1.5.8 2.2 1.1l2.2.9c.8.3 1.5.6 2.3.9.7.3 1.5.7 2.2 1.1.5 0 1 .1 1.5.4.5.3.9.6 1.3.9.4.3.8.5 1.3.6.5.2 1 .3 1.6.4.5.1 1.1.3 1.6.5s1 .4 1.4.8h.3c.6 0 1.2.1 1.9.4.7.2 1.3.5 1.9.8.6.3 1.1.5 1.6.8.5.3.9.4 1.1.4h2.7c.4.4.7.7 1.1.8.4.1.8.2 1.2.2.4 0 .8.1 1.2.1.4.1.8.3 1.1.5 1.1-.1 2.1 0 3.1.1 1 .2 2 .3 3 .3.1 0 .2-.1.3-.1.1.3.2.5.4.7.4.5.7 1 1 1.6.1 0 .3-.1.6-.1.5 0 .9.1 1.2.4.3.2.6.4 1 .5h1.3c.5 0 1 .1 1.5.2s1 .2 1.6.3c.4-.2.8-.4 1.1-.8.3-.3.5-.7.8-1.1.3-.4.5-.7.8-1.1.3-.3.6-.6 1-.8-.1-.3 0-.5.1-.6.1-.1.3-.3.3-.5 2.9-1.8 5.6-3.8 8.1-6.1s4.7-4.8 6.6-7.7h.5c.4-.8.9-1.5 1.4-2.2.5-.7 1.1-1.4 1.6-2.1.6-.7 1.1-1.4 1.6-2.1.5-.7.9-1.5 1.3-2.3.2 0 .4-.1.5-.2.1-.1.2-.3.2-.4s.1-.3.2-.4c.1-.1.2-.2.5-.2.9-1.8 1.8-3.4 2.8-5 1-1.6 1.9-3.2 2.8-4.8.9-1.6 1.6-3.3 2.1-5s.8-3.7.8-5.7v-1.3c0-.4-.1-.7-.2-1.1-.6-.6-.7-.9-.7-1.3zm-115.1 36.6c0 .2-.2.4-.4.6-.4 0-.7 0-.9-.2-.2-.2-.5-.3-.9-.4-.5.1-.9.2-1.4.3-.5.1-1 .1-1.5.1-1 0-1.8-.2-2.7-.5-.4.3-.9.5-1.6.6-.6.1-1.2.2-1.8.4-.3-.4-.7-.6-1.1-.7-.4-.1-.8-.1-1.3-.1h-1.4c-.5 0-.9-.1-1.3-.4 0-.6.1-1.3.3-1.9.2-.6.5-1.1 1.1-1.5.4-1.4.9-2.7 1.5-4 .6-1.3 1.3-2.5 2-3.8.7-1.3 1.3-2.5 2-3.8.6-1.3 1.1-2.6 1.4-4.1.4-.3.7-.6.9-1.1.2-.5.5-.8.9-1 0-.3 0-.6-.1-.9s-.1-.6-.1-.9c0-.4.1-.7.2-.9.5.4.9.8 1.1 1.4l.6 1.8c.1.7.3 1.3.5 2s.4 1.2.8 1.7v.2c0 .2-.1.5-.2.7.5 1.4 1 2.9 1.3 4.4.4 1.5.7 3.1 1 4.6l.3 2.1c.1.7.2 1.4.3 2 .1.5.3.9.5 1.2s.3.9.4 1.7c-.3 0-.4.2-.4.4zm32.2-15.1c-1.1.5-2.2 1-3.4 1.2.1-2.6.2-5.2.5-7.7.2-2.6.5-5.1.7-7.7.1-.9.1-1.8.2-2.6 0-.9.1-1.7.2-2.6v-1.1c0-.4 0-.8.1-1.2 0-.2.1-.5.2-.7.1-.2.1-.5.2-.7.1-.6.2-1.2.2-1.8 0-.6.1-1.2.1-1.8v-.8c0-.3 0-.5-.1-.8.3-.1.6-.2.9-.4.3-.2.7-.3 1.1-.4.4-.1.7-.3 1-.4.3-.1.6-.2.8-.3.4-.1.8-.1 1.2-.1s.9 0 1.3-.1l2.8-.2c.9-.1 1.9-.1 2.8-.1.5 0 1 0 1.5.1.5 0 1 .1 1.5.2.2 0 .4.1.7.1.2.1.5.1.7.1h1.2c.5 0 .9 0 1.4.1.5.1.9.2 1.4.3.9.3 1.9.6 2.8 1 .9.4 1.8.7 2.8 1.1.2.3.5.6.7.8.3.2.5.4.8.6.3.2.5.5.6.7.2.3.2.6.2 1.1 0 .6-.1 1.2-.4 1.8-.3.5-.5 1.1-.9 1.6-.3.5-.7 1.1-1 1.6-.3.5-.6 1.1-.7 1.6-1.7 1.6-3.4 3.2-5.2 4.7-1.8 1.5-3.6 3-5.4 4.6-.3.1-.5.2-.7.4-.2.2-.5.3-.8.3-.3.4-.6.8-1.1 1.1-.4.3-.8.6-1.1 1.1-1.2.4-2.3 1-3.3 1.6-1.1.6-2.1 1.3-3.2 1.9l-3.3 1.8zm37.8 21.2c-.7-.2-1.4-.3-2.2-.3h-.7c-.2 0-.5 0-.7.1-.2-.2-.3-.4-.4-.6-.1-.2-.3-.4-.5-.5-.2.1-.4.1-.8.1-.8 0-1.5-.2-2.2-.5-.7-.3-1.4-.5-2.2-.5h-.5l-.3-.3c-.1-.1-.3-.1-.4-.1-.1 0-.2-.1-.4-.1s-.2-.2-.2-.4v-.1c-.1 0-.2.1-.4.1h-.3c-.6 0-1.3-.1-1.9-.3-.7-.2-1.2-.5-1.7-1-1.1-.3-2.2-.7-3.3-1.1-1.1-.4-2.1-1-3-1.8h-1.3c-.8-.6-1.8-1.1-2.7-1.5-1-.4-2-.8-3-1.1-1-.4-2-.7-3-1.2-.9-.4-1.8-1-2.5-1.7-.3.1-.6.1-.9 0-.3-.1-.7-.2-1-.4-.3-.2-.5-.5-.8-.8s-.3-.6-.3-.9c.7-.4 1.5-.8 2.3-1.2.8-.4 1.5-.9 2.1-1.6 1.5-.5 3-1.2 4.3-2.1 1.3-.9 2.7-1.7 4.2-2.3.5-.7 1-1.3 1.7-1.6.6-.4 1.3-.8 1.9-1.3.3-.2.7-.5 1.2-.9s.9-.6 1.3-.6c.1 0 .2 0 .3.1 0-.4.1-.8.2-1l.6-.6.8-.5c.3-.2.4-.4.5-.7h1.1c.3-.5.4-.9.4-1.3.9-.4 1.7-.9 2.4-1.6.7-.7 1.2-1.4 1.8-2.2.5-.8 1-1.6 1.6-2.5.5-.8 1.1-1.6 1.8-2.3.1-.8.2-1.4.5-1.9s.6-1.1 1-1.7v-.9c.6-.2 1.2-.5 1.7-.7.6-.3 1.2-.6 1.8-1 .6-.4 1.1-.8 1.5-1.3.3 0 .5 0 .7-.1.2-.1.3-.2.5-.3.1-.1.3-.2.4-.4.1-.1.3-.2.6-.2h.2c.1 2.2.2 4.3.5 6.4.3 2.1.4 4.3.4 6.5 0 .6 0 1.2-.1 1.9 0 .6-.1 1.3-.3 1.9.2.6.3 1.2.3 1.7 0 .2 0 .4-.1.6 0 .2-.2.4-.4.5.2.2.3.4.4.7.1.2.2.5.2.8 0 .3 0 .7-.1 1-.1.3-.2.7-.2 1.1-.1.8-.2 1.7-.2 2.7v2.9c0 .9 0 1.9-.1 2.8-.1.9-.2 1.8-.5 2.6l.2.5c.1.2.1.4.2.6-.3.7-.4 1.5-.5 2.2-.1.8-.1 1.5-.1 2.3 0 .3 0 .6.1 1 0 .3 0 .7-.1 1 0 .2-.1.4-.2.6-.1.2-.2.4-.2.5.3.3.4.5.4.9 0 .3 0 .6-.1.8-.1.3-.1.6-.1.8 0 .9.2 1.7.5 2.6.1.2.1.4.2.6-.8-.5-1.3-.7-1.9-.9zm40.4-39.5c0 .3-.1.5-.2.7l-.5.5c.1.8 0 1.5-.1 2.2-.1.7-.3 1.3-.5 1.9s-.4 1.2-.7 1.9c-.2.6-.4 1.3-.4 2.1-.8 1.2-1.6 2.3-2.3 3.5-.7 1.2-1.4 2.4-2.2 3.5-.3.4-.6.8-.8 1.1-.3.3-.6.7-.8 1-.1.1-.2.3-.4.4-.2.1-.3.3-.4.4-.2.2-.3.4-.4.6l-.3.6c-.3.5-.6 1.1-.9 1.6s-.7 1-1 1.5c-1.2 1.6-2.4 3.2-3.8 4.6-1.4 1.5-2.7 2.9-4.1 4.3l-2.4 2.6c-.2.2-.3.4-.5.5-.1.2-.3.3-.5.5-.2.1-.5.4-1 .7-.5.3-.9.6-1.1.7-1 .7-2 1.4-3 2.2-.6.4-1.2.8-1.9 1.1-.1-.3-.2-.5-.4-.8-.2-.4-.4-.9-.4-1.3v-.1c-.7 0-1.5.1-2.2.2 0-.3.1-.6.2-.8-.1-1.2-.3-2.4-.3-3.6-.1-1.2-.1-2.4-.1-3.6 0-1.3.1-2.6.2-3.9s.3-2.6.4-3.9v-.8c0-.4 0-.7-.1-1.1 0-.3-.1-.7-.1-1 0-.5.1-1 .3-1.4.2-.4.3-.9.4-1.4 0-.4.1-.7.1-1.1v-1c0-1.3-.1-2.5-.2-3.8-.1-1.2-.2-2.5-.2-3.8 0-.5 0-1.1.1-1.6 0-.5.1-1.1.2-1.6-.2-.4-.3-.9-.4-1.4 0-.5-.1-1-.1-1.5v-1.5c0-.5-.1-1-.3-1.4.1-.3.2-.7.2-1 0-.3.1-.7.1-1 0-.9-.1-1.9-.3-2.8-.2-.9-.3-1.9-.3-2.8v-1c.2 0 .4 0 .4-.1.1-.1.1-.2.1-.3 0-.1 0-.2.1-.4 0-.1.1-.2.2-.3.2-.1.4-.2.8-.2.2 0 .4 0 .6.1.2 0 .4.1.6.2.7-.5 1.4-.8 2.2-1.1.8-.2 1.7-.4 2.6-.6s1.7-.4 2.6-.6c.9-.2 1.6-.5 2.4-.9.3.2.7.3 1 .3.3 0 .6-.1.9-.2s.6-.2.9-.2h1.3c1.4 0 2.7.2 4.1.6 1.3.4 2.7.8 4 1.2.5.7 1.1 1.2 1.9 1.5.8.4 1.5.7 2.2 1 .2.9.6 1.4 1.3 1.6.3.3.6.6.7.9.1.3.4.5.9.5.3 1 .6 2 1 3s.6 2 .6 3.1v1z"/></svg>